<svg xmlns="http://www.w3.org/2000/svg" viewBox="0 0 401 239.27"><defs><style>.cls-1{opacity:0.5;}.cls-2{fill:#29abe2;}</style></defs><g id="Layer_2" data-name="Layer 2"><g id="Layer_1-2" data-name="Layer 1"><g class="cls-1"><path class="cls-2" d="M377.69,20.69c-36.31-31.61-88.07-8.3-223.19-14.94-54.26-2.67-89.7-13.91-115,5C6.83,35.17,7.26,123,25.5,161c4.78,10,11.94,19.13,21,27.4a134.79,134.79,0,0,0,16.82,13l-.19-.11C43.43,220,13.84,220.81,3.63,220.46c14.45.78,68,3,82.51-6.37L86,214c87.1,40.84,234.28,35.92,289.05-42.23C407.09,126,411.17,49.83,377.69,20.69Z"/><path class="cls-2" d="M3.63,220.46c-2.31-.12-3.63-.21-3.63-.21S1.32,220.38,3.63,220.46Z"/></g></g></g></svg>