<svg xmlns="http://www.w3.org/2000/svg" viewBox="0 0 527.69 263.81"><defs><style>.cls-1{fill:#88e2db;fill-rule:evenodd;opacity:0.5;}</style></defs><g id="Layer_2" data-name="Layer 2"><g id="Layer_1-2" data-name="Layer 1"><path class="cls-1" d="M495.78,40.49c-21-12.81-36.88,4-103,13-35.64,4.84-94.36,12.81-155-8-46.81-16.06-44.71-32.09-84-41-40.48-9.18-111.46-7.75-141,38-30.45,47.17-1.67,117.92,36,155,4.19,4.13,11.93,14.55,28,25.93A25.56,25.56,0,0,1,68.28,246c-11,10,27.13-11.28,27.13-11.28,27.4,14.21,70.11,27.22,137.37,28.78,138.86,3.22,238.9-17.44,278-81C539.69,135.49,529.46,61,495.78,40.49Z"/></g></g></svg>