<svg xmlns="http://www.w3.org/2000/svg" viewBox="0 0 350.24 249.49"><defs><style>.cls-1{fill:#ef73ca;fill-rule:evenodd;opacity:0.5;}</style></defs><g id="Layer_2" data-name="Layer 2"><g id="Layer_1-2" data-name="Layer 1"><path class="cls-1" d="M328.9,204.59a76.41,76.41,0,0,0,6.28-10.65c27.58-56.51-1.59-159-62.28-185.35-20-8.7-51.72-13-80-2-31.81,12.44-32.07,33.81-62,43-40.55,12.46-63.1-19.71-95-3-23,12.06-31,39.11-33,46,0,0-8.21,27.9,3,59,25.26,70.08,228.64,128.31,306.58,69.75,0,0,16.59,20.54,37.76,28.15C350.24,249.49,332.4,234.09,328.9,204.59Z"/></g></g></svg>