<svg width="1256" height="807" viewBox="0 0 1256 807" fill="none" xmlns="http://www.w3.org/2000/svg">
<path d="M554.273 11.14C552.233 11.14 550.563 11.58 549.263 12.46C547.963 13.34 547.313 14.53 547.313 16.03C547.313 17.51 547.743 18.64 548.603 19.42C549.483 20.18 550.843 20.72 552.683 21.04C553.523 21.18 554.293 21.39 554.993 21.67C556.393 22.23 557.093 23.21 557.093 24.61C557.093 25.65 556.743 26.55 556.043 27.31C555.363 28.03 554.653 28.39 553.913 28.39C553.153 28.39 552.363 28.23 551.543 27.91C551.483 27.89 551.073 27.7 550.313 27.34C549.553 26.98 549.143 26.79 549.083 26.77C549.023 26.73 548.913 26.71 548.753 26.71C548.593 26.71 548.433 26.75 548.273 26.83C547.993 26.99 547.763 27.19 547.583 27.43C547.403 27.67 547.313 27.89 547.313 28.09C547.313 28.63 547.823 29.17 548.843 29.71C550.383 30.57 551.943 31 553.523 31C555.103 31 556.323 30.66 557.183 29.98C558.723 28.74 559.493 26.85 559.493 24.31C559.493 21.29 557.883 19.49 554.663 18.91C553.303 18.65 552.213 18.34 551.393 17.98C550.373 17.52 549.863 16.8 549.863 15.82C549.863 15.1 550.283 14.49 551.123 13.99C551.943 13.49 552.753 13.24 553.553 13.24C554.333 13.24 555.213 13.47 556.193 13.93C557.133 14.37 557.753 14.59 558.053 14.59C558.333 14.59 558.553 14.48 558.713 14.26C558.873 14.04 558.953 13.78 558.953 13.48C558.953 12.8 558.493 12.24 557.573 11.8C556.693 11.36 555.593 11.14 554.273 11.14ZM563.363 30.19C563.463 29.27 563.803 27.75 564.383 25.63C565.463 25.91 566.873 26.05 568.613 26.05L569.663 30.16C569.803 30.72 570.203 31 570.863 31C571.123 31 571.343 30.92 571.523 30.76C571.703 30.6 571.793 30.4 571.793 30.16C571.253 27.82 570.793 25.98 570.413 24.64C570.013 23.22 569.483 21.79 568.823 20.35C568.163 18.93 567.733 18.06 567.533 17.74C567.293 17.36 567.013 17.17 566.693 17.17C566.073 17.17 565.453 17.72 564.833 18.82C564.153 20 563.573 21.38 563.093 22.96C561.933 26.56 561.353 28.96 561.353 30.16C561.353 30.68 561.663 30.94 562.283 30.94C562.923 30.94 563.283 30.69 563.363 30.19ZM566.603 19.93C567.183 21.15 567.683 22.52 568.103 24.04C566.903 24.04 565.863 23.92 564.983 23.68C565.403 22.28 565.943 21.03 566.603 19.93ZM585.815 18.1C585.815 17.68 585.555 17.38 585.035 17.2C584.915 17.16 584.815 17.14 584.735 17.14C584.235 17.14 583.735 17.72 583.235 18.88C583.015 19.36 582.495 20.73 581.675 22.99C580.995 24.91 580.565 26.18 580.385 26.8C580.325 26.68 580.175 26.31 579.935 25.69C579.695 25.05 579.445 24.45 579.185 23.89C579.065 23.61 578.745 22.91 578.225 21.79L577.145 19.48C576.865 18.86 576.605 18.41 576.365 18.13C576.125 17.83 575.815 17.68 575.435 17.68C575.175 17.68 574.905 17.8 574.625 18.04C574.365 18.28 574.235 18.52 574.235 18.76V18.94C574.235 19.06 574.265 19.2 574.325 19.36C574.405 19.5 574.515 19.7 574.655 19.96L575.105 20.77C576.605 23.55 577.945 26.39 579.125 29.29C579.585 30.43 580.015 31 580.415 31C580.935 31 581.335 30.65 581.615 29.95C582.435 27.77 583.085 25.83 583.565 24.13C584.085 22.43 584.555 21.11 584.975 20.17L585.515 19.03C585.715 18.63 585.815 18.32 585.815 18.1ZM593.704 24.28C594.144 24.28 594.474 24.28 594.694 24.28C594.914 24.26 595.074 24.25 595.174 24.25C595.414 24.21 595.634 24.08 595.834 23.86C596.034 23.64 596.134 23.41 596.134 23.17C596.134 22.69 595.824 22.41 595.204 22.33C592.664 22.33 591.134 22.32 590.614 22.3C590.594 22.16 590.584 21.15 590.584 19.27C591.344 19.33 592.084 19.36 592.804 19.36C594.784 19.36 596.034 19.22 596.554 18.94C596.794 18.78 596.914 18.51 596.914 18.13C596.914 17.63 596.594 17.33 595.954 17.23H595.924L590.674 17.14H589.834C588.934 17.16 588.484 17.54 588.484 18.28C588.484 19.56 588.514 20.98 588.574 22.54C588.354 22.76 588.244 23 588.244 23.26C588.244 23.56 588.374 23.78 588.634 23.92V28.9C588.634 29.54 588.694 30.05 588.814 30.43C588.934 30.81 589.244 31 589.744 31L595.624 30.94C596.404 30.94 596.794 30.52 596.794 29.68C596.794 29.24 596.504 28.99 595.924 28.93L590.734 29.02C590.754 29 590.764 28.72 590.764 28.18L590.704 24.25L593.704 24.28ZM614.565 19.03C616.445 19.03 617.385 18.62 617.385 17.8C617.385 17.4 617.115 17.14 616.575 17.02L607.215 17.32C606.935 17.34 606.675 17.47 606.435 17.71C606.215 17.95 606.105 18.19 606.105 18.43C606.105 18.95 606.415 19.21 607.035 19.21C608.135 19.21 609.355 19.16 610.695 19.06C610.575 20.44 610.515 22.23 610.515 24.43C610.515 26.27 610.545 28.18 610.605 30.16C610.605 30.72 610.865 31 611.385 31C611.685 31 611.955 30.91 612.195 30.73C612.455 30.53 612.585 30.29 612.585 30.01C612.585 29.29 612.575 28.73 612.555 28.33L612.525 26.08L612.585 18.97L614.565 19.03ZM628.325 18.37C628.345 18.07 628.285 17.79 628.145 17.53C628.005 17.27 627.795 17.14 627.515 17.14C627.195 17.14 626.905 17.23 626.645 17.41C626.385 17.59 626.255 17.82 626.255 18.1C626.255 20.3 626.285 21.96 626.345 23.08H625.415C625.355 23.08 624.975 23.09 624.275 23.11C623.575 23.13 622.635 23.04 621.455 22.84L621.515 18.13C621.515 17.69 621.255 17.47 620.735 17.47C620.435 17.47 620.165 17.56 619.925 17.74C619.685 17.9 619.555 18.1 619.535 18.34L619.415 23.35L619.385 24.85C619.385 26.37 619.495 28.17 619.715 30.25C619.735 30.45 619.825 30.63 619.985 30.79C620.145 30.93 620.345 31 620.585 31C620.865 31 621.125 30.92 621.365 30.76C621.605 30.6 621.715 30.37 621.695 30.07C621.535 27.29 621.455 25.77 621.455 25.51V24.88C622.995 25.04 624.205 25.12 625.085 25.12C625.525 25.12 625.945 25.1 626.345 25.06C626.345 27.5 626.305 29.19 626.225 30.13C626.205 30.71 626.535 31 627.215 31C627.935 31 628.295 30.44 628.295 29.32L628.325 24.88V18.37ZM636.302 24.28C636.742 24.28 637.072 24.28 637.292 24.28C637.512 24.26 637.672 24.25 637.772 24.25C638.012 24.21 638.232 24.08 638.432 23.86C638.632 23.64 638.732 23.41 638.732 23.17C638.732 22.69 638.422 22.41 637.802 22.33C635.262 22.33 633.732 22.32 633.212 22.3C633.192 22.16 633.182 21.15 633.182 19.27C633.942 19.33 634.682 19.36 635.402 19.36C637.382 19.36 638.632 19.22 639.152 18.94C639.392 18.78 639.512 18.51 639.512 18.13C639.512 17.63 639.192 17.33 638.552 17.23H638.522L633.272 17.14H632.432C631.532 17.16 631.082 17.54 631.082 18.28C631.082 19.56 631.112 20.98 631.172 22.54C630.952 22.76 630.842 23 630.842 23.26C630.842 23.56 630.972 23.78 631.232 23.92V28.9C631.232 29.54 631.292 30.05 631.412 30.43C631.532 30.81 631.842 31 632.342 31L638.222 30.94C639.002 30.94 639.392 30.52 639.392 29.68C639.392 29.24 639.102 28.99 638.522 28.93L633.332 29.02C633.352 29 633.362 28.72 633.362 28.18L633.302 24.25L636.302 24.28ZM648.762 18.61C649.502 24.51 649.892 27.74 649.932 28.3C649.992 28.86 650.152 29.44 650.412 30.04C650.692 30.68 651.012 31 651.372 31C651.952 31 652.512 30.58 653.052 29.74C653.612 28.9 654.342 27.41 655.242 25.27C655.582 25.91 655.982 26.71 656.442 27.67C657.142 29.05 657.632 29.97 657.912 30.43C658.132 30.77 658.402 30.94 658.722 30.94C659.442 30.94 659.862 30.68 659.982 30.16C661.462 22.88 662.202 18.72 662.202 17.68C662.202 17.46 662.122 17.29 661.962 17.17C661.802 17.03 661.602 16.96 661.362 16.96C661.122 16.96 660.862 17.07 660.582 17.29C660.322 17.49 660.182 17.71 660.162 17.95C659.822 20.89 659.272 24.1 658.512 27.58C658.412 27.42 657.942 26.45 657.102 24.67C657.002 24.51 656.922 24.36 656.862 24.22C656.802 24.06 656.742 23.93 656.682 23.83C656.262 22.81 655.842 22.3 655.422 22.3C654.882 22.3 654.352 22.78 653.832 23.74L653.052 25.39C652.832 25.91 652.492 26.6 652.032 27.46C651.892 26.56 651.672 24.86 651.372 22.36L650.832 18.07C650.712 17.53 650.442 17.26 650.022 17.26C649.662 17.26 649.362 17.4 649.122 17.68C648.882 17.94 648.762 18.25 648.762 18.61ZM670.092 17.29C668.192 17.29 666.702 17.82 665.622 18.88C664.562 19.94 664.032 21.49 664.032 23.53C664.032 25.59 664.562 27.35 665.622 28.81C666.682 30.25 668.052 30.97 669.732 30.97C671.292 30.97 672.562 30.25 673.542 28.81C674.542 27.35 675.042 25.64 675.042 23.68C675.042 21.72 674.592 20.17 673.692 19.03C672.792 17.87 671.592 17.29 670.092 17.29ZM669.942 28.78C668.762 28.78 667.822 28.22 667.122 27.1C666.442 26 666.102 24.79 666.102 23.47C666.102 22.15 666.422 21.14 667.062 20.44C667.702 19.72 668.602 19.36 669.762 19.36C670.902 19.36 671.702 19.73 672.162 20.47C672.642 21.19 672.882 22.37 672.882 24.01C672.882 25.63 672.482 26.93 671.682 27.91C671.202 28.49 670.622 28.78 669.942 28.78ZM679.938 29.86C679.878 28.06 679.838 26.87 679.818 26.29C680.638 26.85 681.568 27.58 682.608 28.48C683.628 29.38 684.268 30 684.528 30.34C684.888 30.78 685.218 31 685.518 31C685.598 31 685.728 30.97 685.908 30.91C686.388 30.75 686.628 30.45 686.628 30.01C686.628 29.39 686.138 28.6 685.158 27.64C684.138 26.68 683.018 25.81 681.798 25.03C681.958 25.01 682.448 24.77 683.268 24.31C684.088 23.85 684.698 23.48 685.098 23.2C685.558 22.86 685.968 22.42 686.328 21.88C686.708 21.34 686.898 20.86 686.898 20.44C686.898 19.52 686.408 18.75 685.428 18.13C684.448 17.49 683.318 17.17 682.038 17.17C680.738 17.17 679.708 17.35 678.948 17.71C678.188 18.07 677.808 18.57 677.808 19.21C677.808 25.85 677.848 29.58 677.928 30.4C677.928 30.8 678.148 31 678.588 31C678.928 31 679.238 30.89 679.518 30.67C679.798 30.45 679.938 30.19 679.938 29.89V29.86ZM679.818 23.62C679.818 21.5 679.828 20.12 679.848 19.48C680.568 19.3 681.308 19.21 682.068 19.21C682.788 19.21 683.428 19.36 683.988 19.66C684.568 19.94 684.858 20.33 684.858 20.83C684.798 21.39 684.108 22 682.788 22.66C681.448 23.3 680.458 23.62 679.818 23.62ZM693.24 31.03C694.4 31.03 695.4 30.96 696.24 30.82C696.66 30.72 696.87 30.4 696.87 29.86C696.87 29.18 696.54 28.84 695.88 28.84L691.44 29.11C691.38 27.87 691.35 26.81 691.35 25.93C691.35 25.13 691.46 23.71 691.68 21.67C691.88 20.09 691.99 18.93 692.01 18.19C692.01 17.87 691.89 17.62 691.65 17.44C691.41 17.26 691.1 17.17 690.72 17.17C689.96 17.17 689.58 17.42 689.58 17.92L689.37 26.62C689.37 28.4 689.43 29.71 689.55 30.55C689.61 30.85 689.89 31 690.39 31L693.24 31.03ZM699.714 31.3C699.814 31.82 700.124 32.08 700.644 32.08C700.984 32.08 701.284 31.96 701.544 31.72C701.804 31.48 701.934 31.2 701.934 30.88C702.494 30.96 702.974 31 703.374 31C705.154 31 706.544 30.58 707.544 29.74C708.564 28.88 709.074 27.65 709.074 26.05C709.074 23.87 708.114 21.85 706.194 19.99C704.314 18.13 702.334 17.2 700.254 17.2C699.494 17.2 699.034 17.58 698.874 18.34C698.774 18.84 698.724 19.48 698.724 20.26C698.724 20.76 698.764 21.9 698.844 23.68C698.944 25.94 699.084 27.72 699.264 29.02C699.124 29.22 699.054 29.4 699.054 29.56C699.054 29.8 699.184 30.02 699.444 30.22L699.714 31.3ZM700.974 19.42C702.814 20.14 704.264 21.16 705.324 22.48C706.384 23.8 706.914 25.29 706.914 26.95C706.914 28.27 705.744 28.93 703.404 28.93C702.364 28.93 701.744 28.91 701.544 28.87C701.364 27.59 701.214 26.02 701.094 24.16C700.994 22.1 700.944 20.9 700.944 20.56C700.944 19.94 700.954 19.56 700.974 19.42Z" fill="black"/>
<path d="M509.245 777.08C506.865 777.08 504.845 778.03 503.185 779.93C502.405 780.85 501.785 781.99 501.325 783.35C500.865 784.69 500.635 786.06 500.635 787.46C500.635 790.08 501.235 792.34 502.435 794.24C503.635 796.1 505.115 797.03 506.875 797.03C507.435 797.03 508.075 796.89 508.795 796.61C509.535 796.31 510.145 795.95 510.625 795.53C510.665 796.13 510.765 796.53 510.925 796.73C511.085 796.91 511.375 797 511.795 797C512.235 796.96 512.535 796.82 512.695 796.58C512.895 796.26 512.995 795.41 512.995 794.03C512.995 792.99 512.975 791.77 512.935 790.37C512.895 789.81 512.835 789.4 512.755 789.14C512.695 788.86 512.565 788.47 512.365 787.97C512.225 787.57 512.025 787.27 511.765 787.07C511.465 786.85 511.105 786.62 510.685 786.38C510.225 786.1 509.315 785.96 507.955 785.96C507.615 786.02 507.345 786.2 507.145 786.5C506.945 786.78 506.845 787.1 506.845 787.46C506.845 787.78 507.035 788.05 507.415 788.27C507.815 788.47 508.265 788.57 508.765 788.57C509.445 788.63 509.915 788.88 510.175 789.32C510.435 789.76 510.545 790.36 510.505 791.12C510.505 792.06 510.185 792.88 509.545 793.58C508.925 794.26 508.095 794.6 507.055 794.6C505.995 794.6 505.075 793.93 504.295 792.59C503.515 791.23 503.125 789.67 503.125 787.91C503.125 785.51 503.695 783.55 504.835 782.03C506.015 780.49 507.455 779.72 509.155 779.72C509.655 779.72 510.245 779.9 510.925 780.26C511.625 780.62 512.115 780.8 512.395 780.8C513.155 780.8 513.535 780.34 513.535 779.42C513.535 778.82 513.055 778.28 512.095 777.8C511.175 777.32 510.225 777.08 509.245 777.08ZM520.359 790.28C520.799 790.28 521.129 790.28 521.349 790.28C521.569 790.26 521.729 790.25 521.829 790.25C522.069 790.21 522.289 790.08 522.489 789.86C522.689 789.64 522.789 789.41 522.789 789.17C522.789 788.69 522.479 788.41 521.859 788.33C519.319 788.33 517.789 788.32 517.269 788.3C517.249 788.16 517.239 787.15 517.239 785.27C517.999 785.33 518.739 785.36 519.459 785.36C521.439 785.36 522.689 785.22 523.209 784.94C523.449 784.78 523.569 784.51 523.569 784.13C523.569 783.63 523.249 783.33 522.609 783.23H522.579L517.329 783.14H516.489C515.589 783.16 515.139 783.54 515.139 784.28C515.139 785.56 515.169 786.98 515.229 788.54C515.009 788.76 514.899 789 514.899 789.26C514.899 789.56 515.029 789.78 515.289 789.92V794.9C515.289 795.54 515.349 796.05 515.469 796.43C515.589 796.81 515.899 797 516.399 797L522.279 796.94C523.059 796.94 523.449 796.52 523.449 795.68C523.449 795.24 523.159 794.99 522.579 794.93L517.389 795.02C517.409 795 517.419 794.72 517.419 794.18L517.359 790.25L520.359 790.28ZM534.306 785.03C536.186 785.03 537.126 784.62 537.126 783.8C537.126 783.4 536.856 783.14 536.316 783.02L526.956 783.32C526.676 783.34 526.416 783.47 526.176 783.71C525.956 783.95 525.846 784.19 525.846 784.43C525.846 784.95 526.156 785.21 526.776 785.21C527.876 785.21 529.096 785.16 530.436 785.06C530.316 786.44 530.256 788.23 530.256 790.43C530.256 792.27 530.286 794.18 530.346 796.16C530.346 796.72 530.606 797 531.126 797C531.426 797 531.696 796.91 531.936 796.73C532.196 796.53 532.326 796.29 532.326 796.01C532.326 795.29 532.316 794.73 532.296 794.33L532.266 792.08L532.326 784.97L534.306 785.03ZM554.111 785.03C555.991 785.03 556.931 784.62 556.931 783.8C556.931 783.4 556.661 783.14 556.121 783.02L546.761 783.32C546.481 783.34 546.221 783.47 545.981 783.71C545.761 783.95 545.651 784.19 545.651 784.43C545.651 784.95 545.961 785.21 546.581 785.21C547.681 785.21 548.901 785.16 550.241 785.06C550.121 786.44 550.061 788.23 550.061 790.43C550.061 792.27 550.091 794.18 550.151 796.16C550.151 796.72 550.411 797 550.931 797C551.231 797 551.501 796.91 551.741 796.73C552.001 796.53 552.131 796.29 552.131 796.01C552.131 795.29 552.121 794.73 552.101 794.33L552.071 792.08L552.131 784.97L554.111 785.03ZM567.871 784.37C567.891 784.07 567.831 783.79 567.691 783.53C567.551 783.27 567.341 783.14 567.061 783.14C566.741 783.14 566.451 783.23 566.191 783.41C565.931 783.59 565.801 783.82 565.801 784.1C565.801 786.3 565.831 787.96 565.891 789.08H564.961C564.901 789.08 564.521 789.09 563.821 789.11C563.121 789.13 562.181 789.04 561.001 788.84L561.061 784.13C561.061 783.69 560.801 783.47 560.281 783.47C559.981 783.47 559.711 783.56 559.471 783.74C559.231 783.9 559.101 784.1 559.081 784.34L558.961 789.35L558.931 790.85C558.931 792.37 559.041 794.17 559.261 796.25C559.281 796.45 559.371 796.63 559.531 796.79C559.691 796.93 559.891 797 560.131 797C560.411 797 560.671 796.92 560.911 796.76C561.151 796.6 561.261 796.37 561.241 796.07C561.081 793.29 561.001 791.77 561.001 791.51V790.88C562.541 791.04 563.751 791.12 564.631 791.12C565.071 791.12 565.491 791.1 565.891 791.06C565.891 793.5 565.851 795.19 565.771 796.13C565.751 796.71 566.081 797 566.761 797C567.481 797 567.841 796.44 567.841 795.32L567.871 790.88V784.37ZM575.848 790.28C576.288 790.28 576.618 790.28 576.838 790.28C577.058 790.26 577.218 790.25 577.318 790.25C577.558 790.21 577.778 790.08 577.978 789.86C578.178 789.64 578.278 789.41 578.278 789.17C578.278 788.69 577.968 788.41 577.348 788.33C574.808 788.33 573.278 788.32 572.758 788.3C572.738 788.16 572.728 787.15 572.728 785.27C573.488 785.33 574.228 785.36 574.948 785.36C576.928 785.36 578.178 785.22 578.698 784.94C578.938 784.78 579.058 784.51 579.058 784.13C579.058 783.63 578.738 783.33 578.098 783.23H578.068L572.818 783.14H571.978C571.078 783.16 570.628 783.54 570.628 784.28C570.628 785.56 570.658 786.98 570.718 788.54C570.498 788.76 570.388 789 570.388 789.26C570.388 789.56 570.518 789.78 570.778 789.92V794.9C570.778 795.54 570.838 796.05 570.958 796.43C571.078 796.81 571.388 797 571.888 797L577.768 796.94C578.548 796.94 578.938 796.52 578.938 795.68C578.938 795.24 578.648 794.99 578.068 794.93L572.878 795.02C572.898 795 572.908 794.72 572.908 794.18L572.848 790.25L575.848 790.28ZM595.808 789.2C596.428 788.58 596.738 787.73 596.738 786.65C596.738 785.59 596.298 784.74 595.418 784.1C594.558 783.44 593.448 783.11 592.088 783.11C590.728 783.11 589.828 783.48 589.388 784.22C588.948 784.96 588.728 786.23 588.728 788.03C588.728 790.87 588.758 793.43 588.818 795.71L588.848 797C593.588 797 596.268 796.66 596.888 795.98C597.788 795.1 598.238 794.02 598.238 792.74C598.238 791.96 598.008 791.22 597.548 790.52C597.088 789.8 596.508 789.36 595.808 789.2ZM590.828 786.5C590.828 785.96 590.938 785.58 591.158 785.36C591.398 785.12 591.838 785 592.478 785C593.158 785 593.728 785.16 594.188 785.48C594.668 785.78 594.908 786.17 594.908 786.65C594.908 787.49 594.498 788.11 593.678 788.51C592.858 788.87 591.908 789.05 590.828 789.05V786.5ZM593.888 790.64C595.548 790.64 596.378 791.34 596.378 792.74C596.378 793.94 595.468 794.69 593.648 794.99C592.708 795.13 592.028 795.2 591.608 795.2C591.188 795.18 590.958 795.17 590.918 795.17C590.818 794.19 590.768 793.23 590.768 792.29L590.798 790.88C592.018 790.72 593.048 790.64 593.888 790.64ZM606.17 790.28C606.61 790.28 606.94 790.28 607.16 790.28C607.38 790.26 607.54 790.25 607.64 790.25C607.88 790.21 608.1 790.08 608.3 789.86C608.5 789.64 608.6 789.41 608.6 789.17C608.6 788.69 608.29 788.41 607.67 788.33C605.13 788.33 603.6 788.32 603.08 788.3C603.06 788.16 603.05 787.15 603.05 785.27C603.81 785.33 604.55 785.36 605.27 785.36C607.25 785.36 608.5 785.22 609.02 784.94C609.26 784.78 609.38 784.51 609.38 784.13C609.38 783.63 609.06 783.33 608.42 783.23H608.39L603.14 783.14H602.3C601.4 783.16 600.95 783.54 600.95 784.28C600.95 785.56 600.98 786.98 601.04 788.54C600.82 788.76 600.71 789 600.71 789.26C600.71 789.56 600.84 789.78 601.1 789.92V794.9C601.1 795.54 601.16 796.05 601.28 796.43C601.4 796.81 601.71 797 602.21 797L608.09 796.94C608.87 796.94 609.26 796.52 609.26 795.68C609.26 795.24 608.97 794.99 608.39 794.93L603.2 795.02C603.22 795 603.23 794.72 603.23 794.18L603.17 790.25L606.17 790.28ZM621.347 785.03C621.347 784.45 620.977 783.99 620.237 783.65C619.497 783.29 618.447 783.11 617.087 783.11C615.687 783.11 614.517 783.45 613.577 784.13C612.617 784.79 612.137 785.59 612.137 786.53C612.137 787.45 612.397 788.17 612.917 788.69C613.397 789.17 614.017 789.52 614.777 789.74L615.887 790.01C616.727 790.19 617.387 790.37 617.867 790.55C618.367 790.71 618.787 790.95 619.127 791.27C619.467 791.59 619.637 792.02 619.637 792.56C619.637 793.24 619.397 793.79 618.917 794.21C618.457 794.63 617.807 794.84 616.967 794.84C616.467 794.84 615.287 794.47 613.427 793.73C613.307 793.69 613.217 793.67 613.157 793.67C612.897 793.67 612.667 793.79 612.467 794.03C612.267 794.25 612.167 794.5 612.167 794.78C612.167 795.4 612.637 795.92 613.577 796.34C614.517 796.76 615.637 796.97 616.937 796.97C618.257 796.97 619.387 796.62 620.327 795.92C621.287 795.2 621.767 794.11 621.767 792.65C621.767 792.03 621.687 791.5 621.527 791.06C621.387 790.6 621.227 790.29 621.047 790.13C620.847 789.93 620.597 789.73 620.297 789.53C619.997 789.29 619.307 789.03 618.227 788.75C617.127 788.47 616.227 788.16 615.527 787.82C614.767 787.46 614.387 787.05 614.387 786.59C614.387 786.13 614.697 785.75 615.317 785.45C615.937 785.13 616.537 784.97 617.117 784.97C617.737 784.97 618.377 785.13 619.037 785.45C619.737 785.77 620.247 785.93 620.567 785.93C620.747 785.93 620.917 785.85 621.077 785.69C621.257 785.51 621.347 785.29 621.347 785.03ZM632.128 785.03C634.008 785.03 634.948 784.62 634.948 783.8C634.948 783.4 634.678 783.14 634.138 783.02L624.778 783.32C624.498 783.34 624.238 783.47 623.998 783.71C623.778 783.95 623.668 784.19 623.668 784.43C623.668 784.95 623.978 785.21 624.598 785.21C625.698 785.21 626.918 785.16 628.258 785.06C628.138 786.44 628.078 788.23 628.078 790.43C628.078 792.27 628.108 794.18 628.168 796.16C628.168 796.72 628.428 797 628.948 797C629.248 797 629.518 796.91 629.758 796.73C630.018 796.53 630.148 796.29 630.148 796.01C630.148 795.29 630.138 794.73 630.118 794.33L630.088 792.08L630.148 784.97L632.128 785.03ZM649.383 790.28C649.823 790.28 650.153 790.28 650.373 790.28C650.593 790.26 650.753 790.25 650.853 790.25C651.093 790.21 651.313 790.08 651.513 789.86C651.713 789.64 651.813 789.41 651.813 789.17C651.813 788.69 651.503 788.41 650.883 788.33C648.343 788.33 646.813 788.32 646.293 788.3C646.273 788.16 646.263 787.15 646.263 785.27C647.023 785.33 647.763 785.36 648.483 785.36C650.463 785.36 651.713 785.22 652.233 784.94C652.473 784.78 652.593 784.51 652.593 784.13C652.593 783.63 652.273 783.33 651.633 783.23H651.603L646.353 783.14H645.513C644.613 783.16 644.163 783.54 644.163 784.28C644.163 785.56 644.193 786.98 644.253 788.54C644.033 788.76 643.923 789 643.923 789.26C643.923 789.56 644.053 789.78 644.313 789.92V794.9C644.313 795.54 644.373 796.05 644.493 796.43C644.613 796.81 644.923 797 645.423 797L651.303 796.94C652.083 796.94 652.473 796.52 652.473 795.68C652.473 795.24 652.183 794.99 651.603 794.93L646.413 795.02C646.433 795 646.443 794.72 646.443 794.18L646.383 790.25L649.383 790.28ZM655.649 795.23C655.409 795.47 655.289 795.74 655.289 796.04C655.289 796.32 655.399 796.54 655.619 796.7C655.819 796.9 656.049 797 656.309 797C656.589 797 656.889 796.91 657.209 796.73C658.689 795.31 660.119 793.86 661.499 792.38C662.399 793.62 663.239 794.66 664.019 795.5C664.819 796.36 665.369 796.79 665.669 796.79C665.969 796.79 666.249 796.68 666.509 796.46C666.769 796.24 666.899 795.99 666.899 795.71C666.899 795.43 666.729 795.07 666.389 794.63C666.069 794.17 665.519 793.5 664.739 792.62C664.159 791.96 663.629 791.3 663.149 790.64C666.129 787.24 667.619 785.05 667.619 784.07C667.619 783.89 667.529 783.7 667.349 783.5C667.169 783.28 666.969 783.17 666.749 783.17C666.269 783.17 665.859 783.4 665.519 783.86C665.459 783.94 665.179 784.36 664.679 785.12C664.559 785.32 664.439 785.5 664.319 785.66C663.999 786.18 663.829 786.46 663.809 786.5C663.209 787.34 662.539 788.15 661.799 788.93L660.509 787.01C660.129 786.39 659.769 785.84 659.429 785.36C659.389 785.28 659.129 784.9 658.649 784.22C658.169 783.54 657.709 783.2 657.269 783.2C657.009 783.2 656.749 783.33 656.489 783.59C656.229 783.85 656.099 784.12 656.099 784.4C656.099 784.5 656.119 784.63 656.159 784.79C656.299 785.11 656.499 785.48 656.759 785.9L657.809 787.37C658.189 787.85 658.649 788.47 659.189 789.23L660.179 790.64L655.649 795.23ZM673.979 783.14C671.699 783.14 670.539 783.56 670.499 784.4V795.68C670.499 796.14 670.589 796.48 670.769 796.7C670.949 796.9 671.299 797 671.819 797C672.359 797 672.649 796.77 672.689 796.31C672.729 795.51 672.749 794.82 672.749 794.24C672.749 793.32 672.719 792.23 672.659 790.97C673.159 791.05 673.679 791.09 674.219 791.09C675.479 791.09 676.479 790.81 677.219 790.25C678.239 789.47 678.749 788.26 678.749 786.62C678.749 785.56 678.309 784.72 677.429 784.1C676.569 783.46 675.419 783.14 673.979 783.14ZM672.599 785.27C673.119 785.19 673.509 785.15 673.769 785.15C674.249 785.15 674.759 785.22 675.299 785.36C676.219 785.6 676.699 785.98 676.739 786.5V786.77C676.739 787.63 676.449 788.23 675.869 788.57C675.449 788.81 674.819 788.93 673.979 788.93C673.459 788.93 672.979 788.9 672.539 788.84V787.58C672.539 786.52 672.559 785.75 672.599 785.27ZM686.883 790.28C687.323 790.28 687.653 790.28 687.873 790.28C688.093 790.26 688.253 790.25 688.353 790.25C688.593 790.21 688.813 790.08 689.013 789.86C689.213 789.64 689.313 789.41 689.313 789.17C689.313 788.69 689.003 788.41 688.383 788.33C685.843 788.33 684.313 788.32 683.793 788.3C683.773 788.16 683.763 787.15 683.763 785.27C684.523 785.33 685.263 785.36 685.983 785.36C687.963 785.36 689.213 785.22 689.733 784.94C689.973 784.78 690.093 784.51 690.093 784.13C690.093 783.63 689.773 783.33 689.133 783.23H689.103L683.853 783.14H683.013C682.113 783.16 681.663 783.54 681.663 784.28C681.663 785.56 681.693 786.98 681.753 788.54C681.533 788.76 681.423 789 681.423 789.26C681.423 789.56 681.553 789.78 681.813 789.92V794.9C681.813 795.54 681.873 796.05 681.993 796.43C682.113 796.81 682.423 797 682.923 797L688.803 796.94C689.583 796.94 689.973 796.52 689.973 795.68C689.973 795.24 689.683 794.99 689.103 794.93L683.913 795.02C683.933 795 683.943 794.72 683.943 794.18L683.883 790.25L686.883 790.28ZM695.099 795.86C695.039 794.06 694.999 792.87 694.979 792.29C695.799 792.85 696.729 793.58 697.769 794.48C698.789 795.38 699.429 796 699.689 796.34C700.049 796.78 700.379 797 700.679 797C700.759 797 700.889 796.97 701.069 796.91C701.549 796.75 701.789 796.45 701.789 796.01C701.789 795.39 701.299 794.6 700.319 793.64C699.299 792.68 698.179 791.81 696.959 791.03C697.119 791.01 697.609 790.77 698.429 790.31C699.249 789.85 699.859 789.48 700.259 789.2C700.719 788.86 701.129 788.42 701.489 787.88C701.869 787.34 702.059 786.86 702.059 786.44C702.059 785.52 701.569 784.75 700.589 784.13C699.609 783.49 698.479 783.17 697.199 783.17C695.899 783.17 694.869 783.35 694.109 783.71C693.349 784.07 692.969 784.57 692.969 785.21C692.969 791.85 693.009 795.58 693.089 796.4C693.089 796.8 693.309 797 693.749 797C694.089 797 694.399 796.89 694.679 796.67C694.959 796.45 695.099 796.19 695.099 795.89V795.86ZM694.979 789.62C694.979 787.5 694.989 786.12 695.009 785.48C695.729 785.3 696.469 785.21 697.229 785.21C697.949 785.21 698.589 785.36 699.149 785.66C699.729 785.94 700.019 786.33 700.019 786.83C699.959 787.39 699.269 788 697.949 788.66C696.609 789.3 695.619 789.62 694.979 789.62ZM705.491 797C705.791 797 706.081 796.9 706.361 796.7C706.641 796.48 706.791 796.25 706.811 796.01C706.891 794.97 706.931 791.72 706.931 786.26C706.931 785.02 706.921 784.29 706.901 784.07C706.881 783.75 706.761 783.51 706.541 783.35C706.341 783.21 706.091 783.14 705.791 783.14C705.491 783.14 705.241 783.23 705.041 783.41C704.861 783.57 704.771 783.79 704.771 784.07L704.651 796.28C704.651 796.76 704.931 797 705.491 797ZM714.803 790.28C715.243 790.28 715.573 790.28 715.793 790.28C716.013 790.26 716.173 790.25 716.273 790.25C716.513 790.21 716.733 790.08 716.933 789.86C717.133 789.64 717.233 789.41 717.233 789.17C717.233 788.69 716.923 788.41 716.303 788.33C713.763 788.33 712.233 788.32 711.713 788.3C711.693 788.16 711.683 787.15 711.683 785.27C712.443 785.33 713.183 785.36 713.903 785.36C715.883 785.36 717.133 785.22 717.653 784.94C717.893 784.78 718.013 784.51 718.013 784.13C718.013 783.63 717.693 783.33 717.053 783.23H717.023L711.773 783.14H710.933C710.033 783.16 709.583 783.54 709.583 784.28C709.583 785.56 709.613 786.98 709.673 788.54C709.453 788.76 709.343 789 709.343 789.26C709.343 789.56 709.473 789.78 709.733 789.92V794.9C709.733 795.54 709.793 796.05 709.913 796.43C710.033 796.81 710.343 797 710.843 797L716.723 796.94C717.503 796.94 717.893 796.52 717.893 795.68C717.893 795.24 717.603 794.99 717.023 794.93L711.833 795.02C711.853 795 711.863 794.72 711.863 794.18L711.803 790.25L714.803 790.28ZM723.019 787.64C724.679 789.52 726.269 791.9 727.789 794.78C727.849 794.88 727.969 795.1 728.149 795.44C728.329 795.78 728.589 796.16 728.929 796.58C729.209 796.92 729.599 797.09 730.099 797.09C730.939 797.09 731.359 796.57 731.359 795.53L731.209 784.37C731.209 784.03 731.099 783.75 730.879 783.53C730.659 783.29 730.419 783.17 730.159 783.17C729.499 783.17 729.089 783.55 728.929 784.31V784.55L729.079 787.01C729.199 788.87 729.269 791.03 729.289 793.49C728.289 791.39 726.849 789.18 724.969 786.86C724.189 785.86 723.589 785.17 723.169 784.79C722.749 784.39 722.389 784.19 722.089 784.19C721.529 784.19 721.169 784.46 721.009 785C720.909 785.42 720.859 786 720.859 786.74V787.73L720.619 796.13C720.639 796.39 720.739 796.61 720.919 796.79C721.119 796.95 721.339 797.03 721.579 797.03C722.199 797.03 722.549 796.76 722.629 796.22C722.649 796.14 722.659 795.93 722.659 795.59L722.689 794.93L723.019 787.64ZM743.492 785.72C743.792 785.72 744.082 785.6 744.362 785.36C744.642 785.1 744.782 784.84 744.782 784.58C744.782 784.26 744.602 784.02 744.242 783.86V783.83C743.122 783.45 741.972 783.26 740.792 783.26C738.812 783.26 737.172 783.88 735.872 785.12C734.592 786.34 733.952 788.02 733.952 790.16C733.952 791.74 734.342 793.22 735.122 794.6C735.502 795.3 736.022 795.87 736.682 796.31C737.342 796.75 738.012 796.97 738.692 796.97C739.792 796.97 741.602 796.44 744.122 795.38C744.582 795.08 744.812 794.72 744.812 794.3C744.812 793.8 744.542 793.55 744.002 793.55C743.922 793.55 743.222 793.78 741.902 794.24C740.582 794.7 739.672 794.93 739.172 794.93C738.652 794.93 738.152 794.68 737.672 794.18C736.692 793.22 736.202 791.92 736.202 790.28C736.202 787.04 737.822 785.42 741.062 785.42L743.492 785.72ZM752.918 790.28C753.358 790.28 753.688 790.28 753.908 790.28C754.128 790.26 754.288 790.25 754.388 790.25C754.628 790.21 754.848 790.08 755.048 789.86C755.248 789.64 755.348 789.41 755.348 789.17C755.348 788.69 755.038 788.41 754.418 788.33C751.878 788.33 750.348 788.32 749.828 788.3C749.808 788.16 749.798 787.15 749.798 785.27C750.558 785.33 751.298 785.36 752.018 785.36C753.998 785.36 755.248 785.22 755.768 784.94C756.008 784.78 756.128 784.51 756.128 784.13C756.128 783.63 755.808 783.33 755.168 783.23H755.138L749.888 783.14H749.048C748.148 783.16 747.698 783.54 747.698 784.28C747.698 785.56 747.728 786.98 747.788 788.54C747.568 788.76 747.458 789 747.458 789.26C747.458 789.56 747.588 789.78 747.848 789.92V794.9C747.848 795.54 747.908 796.05 748.028 796.43C748.148 796.81 748.458 797 748.958 797L754.838 796.94C755.618 796.94 756.008 796.52 756.008 795.68C756.008 795.24 755.718 794.99 755.138 794.93L749.948 795.02C749.968 795 749.978 794.72 749.978 794.18L749.918 790.25L752.918 790.28Z" fill="black"/>
<path d="M1010.19 388.31C1010.19 387.77 1009.91 387.5 1009.35 387.5C1008.97 387.5 1008.64 387.6 1008.36 387.8C1008.08 388 1007.94 388.29 1007.94 388.67L1007.76 398.03C1007.76 400.89 1007.89 403.69 1008.15 406.43C1008.19 406.89 1008.43 407.12 1008.87 407.12C1009.31 407.12 1009.69 407.04 1010.01 406.88C1010.31 406.7 1010.45 406.45 1010.43 406.13C1010.19 403.25 1010.07 400.49 1010.07 397.85C1011.67 398.09 1013.28 398.21 1014.9 398.21C1015.54 398.21 1016.2 398.19 1016.88 398.15L1016.76 406.1C1016.76 406.68 1017 406.97 1017.48 406.97C1018.42 406.97 1018.91 406.68 1018.95 406.1C1019.05 403.16 1019.1 400.74 1019.1 398.84V388.22C1019.1 387.5 1018.8 387.14 1018.2 387.14C1017.82 387.14 1017.51 387.2 1017.27 387.32C1017.05 387.42 1016.91 387.55 1016.85 387.71C1016.81 387.87 1016.79 388.18 1016.79 388.64V391.49C1016.79 392.37 1016.81 393.83 1016.85 395.87C1016.61 395.89 1015.78 395.9 1014.36 395.9C1013 395.9 1011.57 395.77 1010.07 395.51L1010.19 388.31ZM1023.44 406.19C1023.54 405.27 1023.88 403.75 1024.46 401.63C1025.54 401.91 1026.95 402.05 1028.69 402.05L1029.74 406.16C1029.88 406.72 1030.28 407 1030.94 407C1031.2 407 1031.42 406.92 1031.6 406.76C1031.78 406.6 1031.87 406.4 1031.87 406.16C1031.33 403.82 1030.87 401.98 1030.49 400.64C1030.09 399.22 1029.56 397.79 1028.9 396.35C1028.24 394.93 1027.81 394.06 1027.61 393.74C1027.37 393.36 1027.09 393.17 1026.77 393.17C1026.15 393.17 1025.53 393.72 1024.91 394.82C1024.23 396 1023.65 397.38 1023.17 398.96C1022.01 402.56 1021.43 404.96 1021.43 406.16C1021.43 406.68 1021.74 406.94 1022.36 406.94C1023 406.94 1023.36 406.69 1023.44 406.19ZM1026.68 395.93C1027.26 397.15 1027.76 398.52 1028.18 400.04C1026.98 400.04 1025.94 399.92 1025.06 399.68C1025.48 398.28 1026.02 397.03 1026.68 395.93ZM1036.81 397.64C1038.47 399.52 1040.06 401.9 1041.58 404.78C1041.64 404.88 1041.76 405.1 1041.94 405.44C1042.12 405.78 1042.38 406.16 1042.72 406.58C1043 406.92 1043.39 407.09 1043.89 407.09C1044.73 407.09 1045.15 406.57 1045.15 405.53L1045 394.37C1045 394.03 1044.89 393.75 1044.67 393.53C1044.45 393.29 1044.21 393.17 1043.95 393.17C1043.29 393.17 1042.88 393.55 1042.72 394.31V394.55L1042.87 397.01C1042.99 398.87 1043.06 401.03 1043.08 403.49C1042.08 401.39 1040.64 399.18 1038.76 396.86C1037.98 395.86 1037.38 395.17 1036.96 394.79C1036.54 394.39 1036.18 394.19 1035.88 394.19C1035.32 394.19 1034.96 394.46 1034.8 395C1034.7 395.42 1034.65 396 1034.65 396.74V397.73L1034.41 406.13C1034.43 406.39 1034.53 406.61 1034.71 406.79C1034.91 406.95 1035.13 407.03 1035.37 407.03C1035.99 407.03 1036.34 406.76 1036.42 406.22C1036.44 406.14 1036.45 405.93 1036.45 405.59L1036.48 404.93L1036.81 397.64ZM1048.79 407.3C1048.89 407.82 1049.2 408.08 1049.72 408.08C1050.06 408.08 1050.36 407.96 1050.62 407.72C1050.88 407.48 1051.01 407.2 1051.01 406.88C1051.57 406.96 1052.05 407 1052.45 407C1054.23 407 1055.62 406.58 1056.62 405.74C1057.64 404.88 1058.15 403.65 1058.15 402.05C1058.15 399.87 1057.19 397.85 1055.27 395.99C1053.39 394.13 1051.41 393.2 1049.33 393.2C1048.57 393.2 1048.11 393.58 1047.95 394.34C1047.85 394.84 1047.8 395.48 1047.8 396.26C1047.8 396.76 1047.84 397.9 1047.92 399.68C1048.02 401.94 1048.16 403.72 1048.34 405.02C1048.2 405.22 1048.13 405.4 1048.13 405.56C1048.13 405.8 1048.26 406.02 1048.52 406.22L1048.79 407.3ZM1050.05 395.42C1051.89 396.14 1053.34 397.16 1054.4 398.48C1055.46 399.8 1055.99 401.29 1055.99 402.95C1055.99 404.27 1054.82 404.93 1052.48 404.93C1051.44 404.93 1050.82 404.91 1050.62 404.87C1050.44 403.59 1050.29 402.02 1050.17 400.16C1050.07 398.1 1050.02 396.9 1050.02 396.56C1050.02 395.94 1050.03 395.56 1050.05 395.42ZM1070.19 395.03C1070.19 394.45 1069.82 393.99 1069.08 393.65C1068.34 393.29 1067.29 393.11 1065.93 393.11C1064.53 393.11 1063.36 393.45 1062.42 394.13C1061.46 394.79 1060.98 395.59 1060.98 396.53C1060.98 397.45 1061.24 398.17 1061.76 398.69C1062.24 399.17 1062.86 399.52 1063.62 399.74L1064.73 400.01C1065.57 400.19 1066.23 400.37 1066.71 400.55C1067.21 400.71 1067.63 400.95 1067.97 401.27C1068.31 401.59 1068.48 402.02 1068.48 402.56C1068.48 403.24 1068.24 403.79 1067.76 404.21C1067.3 404.63 1066.65 404.84 1065.81 404.84C1065.31 404.84 1064.13 404.47 1062.27 403.73C1062.15 403.69 1062.06 403.67 1062 403.67C1061.74 403.67 1061.51 403.79 1061.31 404.03C1061.11 404.25 1061.01 404.5 1061.01 404.78C1061.01 405.4 1061.48 405.92 1062.42 406.34C1063.36 406.76 1064.48 406.97 1065.78 406.97C1067.1 406.97 1068.23 406.62 1069.17 405.92C1070.13 405.2 1070.61 404.11 1070.61 402.65C1070.61 402.03 1070.53 401.5 1070.37 401.06C1070.23 400.6 1070.07 400.29 1069.89 400.13C1069.69 399.93 1069.44 399.73 1069.14 399.53C1068.84 399.29 1068.15 399.03 1067.07 398.75C1065.97 398.47 1065.07 398.16 1064.37 397.82C1063.61 397.46 1063.23 397.05 1063.23 396.59C1063.23 396.13 1063.54 395.75 1064.16 395.45C1064.78 395.13 1065.38 394.97 1065.96 394.97C1066.58 394.97 1067.22 395.13 1067.88 395.45C1068.58 395.77 1069.09 395.93 1069.41 395.93C1069.59 395.93 1069.76 395.85 1069.92 395.69C1070.1 395.51 1070.19 395.29 1070.19 395.03ZM1085.82 393.29C1083.92 393.29 1082.43 393.82 1081.35 394.88C1080.29 395.94 1079.76 397.49 1079.76 399.53C1079.76 401.59 1080.29 403.35 1081.35 404.81C1082.41 406.25 1083.78 406.97 1085.46 406.97C1087.02 406.97 1088.29 406.25 1089.27 404.81C1090.27 403.35 1090.77 401.64 1090.77 399.68C1090.77 397.72 1090.32 396.17 1089.42 395.03C1088.52 393.87 1087.32 393.29 1085.82 393.29ZM1085.67 404.78C1084.49 404.78 1083.55 404.22 1082.85 403.1C1082.17 402 1081.83 400.79 1081.83 399.47C1081.83 398.15 1082.15 397.14 1082.79 396.44C1083.43 395.72 1084.33 395.36 1085.49 395.36C1086.63 395.36 1087.43 395.73 1087.89 396.47C1088.37 397.19 1088.61 398.37 1088.61 400.01C1088.61 401.63 1088.21 402.93 1087.41 403.91C1086.93 404.49 1086.35 404.78 1085.67 404.78ZM1099.05 400.67C1099.05 403.91 1099.07 405.67 1099.11 405.95C1099.21 406.71 1099.57 407.09 1100.19 407.09C1100.81 407.09 1101.12 406.62 1101.12 405.68C1101.06 404.2 1101.03 402.54 1101.03 400.7H1104.75C1105.05 400.7 1105.29 400.6 1105.47 400.4C1105.65 400.2 1105.74 399.96 1105.74 399.68C1105.74 399.4 1105.65 399.16 1105.47 398.96C1105.31 398.76 1105.13 398.66 1104.93 398.66H1101.03V395.42C1102.09 395.48 1102.97 395.51 1103.67 395.51C1104.65 395.51 1105.29 395.48 1105.59 395.42C1105.97 395.36 1106.21 395.3 1106.31 395.24C1106.63 395.16 1106.79 394.86 1106.79 394.34C1106.79 393.7 1106.21 393.38 1105.05 393.38C1102.73 393.38 1101.24 393.35 1100.58 393.29L1099.32 393.2C1099.16 393.2 1098.98 393.25 1098.78 393.35C1096.98 393.35 1095.74 393.32 1095.06 393.26C1094.36 393.2 1093.89 393.17 1093.65 393.17C1093.41 393.17 1093.17 393.32 1092.93 393.62C1092.75 393.86 1092.66 394.06 1092.66 394.22C1092.66 394.92 1092.92 395.3 1093.44 395.36C1093.46 395.7 1093.47 396.82 1093.47 398.72V403.46C1093.47 404.86 1093.49 405.68 1093.53 405.92C1093.63 406.68 1093.99 407.06 1094.61 407.06C1095.23 407.06 1095.54 406.59 1095.54 405.65C1095.48 404.17 1095.45 402.51 1095.45 400.67H1099.05ZM1095.45 395.39C1096.45 395.45 1097.24 395.48 1097.82 395.48L1099.02 395.45C1099.04 395.73 1099.05 396.79 1099.05 398.63H1095.45V395.39ZM1026.56 422.45C1026.28 422.45 1026.01 422.54 1025.75 422.72C1025.51 422.88 1025.35 423.06 1025.27 423.26C1025.23 423.32 1025.12 423.61 1024.94 424.13L1024.7 424.91C1023.92 427.09 1022.52 428.18 1020.5 428.18C1019.8 428.18 1019.17 427.78 1018.61 426.98C1018.05 426.16 1017.76 425.25 1017.74 424.25C1017.72 424.01 1017.6 423.82 1017.38 423.68C1017.16 423.54 1016.89 423.47 1016.57 423.47C1016.29 423.47 1016.04 423.6 1015.82 423.86C1015.6 424.1 1015.49 424.37 1015.49 424.67V430.58L1015.4 436.13C1015.4 436.71 1015.67 437 1016.21 437C1017.13 437 1017.6 436.58 1017.62 435.74C1017.66 434.9 1017.68 432.8 1017.68 429.44C1018.3 430.06 1019.19 430.37 1020.35 430.37C1021.49 430.37 1022.4 430.19 1023.08 429.83C1023.78 429.47 1024.5 428.84 1025.24 427.94C1025.24 429.48 1025.25 430.6 1025.27 431.3C1025.31 432.66 1025.33 434.23 1025.33 436.01C1025.33 436.67 1025.58 437 1026.08 437C1026.6 437 1026.96 436.87 1027.16 436.61C1027.4 436.33 1027.52 436.04 1027.52 435.74C1027.52 431 1027.49 426.85 1027.43 423.29C1027.43 422.73 1027.14 422.45 1026.56 422.45ZM1037.85 423.05C1037.75 423.05 1037.62 423.1 1037.46 423.2C1037.16 423.36 1036.7 423.92 1036.08 424.88L1035.15 426.38L1034.01 428.12C1033.71 427.68 1033.32 427.04 1032.84 426.2C1031.66 424.18 1030.93 423.17 1030.65 423.17C1030.25 423.17 1029.91 423.38 1029.63 423.8C1029.51 423.98 1029.45 424.14 1029.45 424.28C1029.45 424.4 1029.48 424.51 1029.54 424.61C1030.92 427.13 1032.04 428.95 1032.9 430.07C1032.96 430.61 1032.99 431.14 1032.99 431.66L1032.96 434.9C1032.96 436 1033.07 436.66 1033.29 436.88C1033.37 436.96 1033.5 437 1033.68 437C1034.3 437 1034.67 436.74 1034.79 436.22C1034.91 435.7 1034.97 434.54 1034.97 432.74V430.13C1035.25 429.65 1035.56 429.19 1035.9 428.75L1036.32 428.12L1037.04 427.04L1037.82 425.84C1038.36 424.96 1038.63 424.27 1038.63 423.77C1038.63 423.35 1038.37 423.11 1037.85 423.05ZM1049.11 437.3C1049.21 437.82 1049.52 438.08 1050.04 438.08C1050.38 438.08 1050.68 437.96 1050.94 437.72C1051.2 437.48 1051.33 437.2 1051.33 436.88C1051.89 436.96 1052.37 437 1052.77 437C1054.55 437 1055.94 436.58 1056.94 435.74C1057.96 434.88 1058.47 433.65 1058.47 432.05C1058.47 429.87 1057.51 427.85 1055.59 425.99C1053.71 424.13 1051.73 423.2 1049.65 423.2C1048.89 423.2 1048.43 423.58 1048.27 424.34C1048.17 424.84 1048.12 425.48 1048.12 426.26C1048.12 426.76 1048.16 427.9 1048.24 429.68C1048.34 431.94 1048.48 433.72 1048.66 435.02C1048.52 435.22 1048.45 435.4 1048.45 435.56C1048.45 435.8 1048.58 436.02 1048.84 436.22L1049.11 437.3ZM1050.37 425.42C1052.21 426.14 1053.66 427.16 1054.72 428.48C1055.78 429.8 1056.31 431.29 1056.31 432.95C1056.31 434.27 1055.14 434.93 1052.8 434.93C1051.76 434.93 1051.14 434.91 1050.94 434.87C1050.76 433.59 1050.61 432.02 1050.49 430.16C1050.39 428.1 1050.34 426.9 1050.34 426.56C1050.34 425.94 1050.35 425.56 1050.37 425.42ZM1063.4 436.19C1063.5 435.27 1063.84 433.75 1064.42 431.63C1065.5 431.91 1066.91 432.05 1068.65 432.05L1069.7 436.16C1069.84 436.72 1070.24 437 1070.9 437C1071.16 437 1071.38 436.92 1071.56 436.76C1071.74 436.6 1071.83 436.4 1071.83 436.16C1071.29 433.82 1070.83 431.98 1070.45 430.64C1070.05 429.22 1069.52 427.79 1068.86 426.35C1068.2 424.93 1067.77 424.06 1067.57 423.74C1067.33 423.36 1067.05 423.17 1066.73 423.17C1066.11 423.17 1065.49 423.72 1064.87 424.82C1064.19 426 1063.61 427.38 1063.13 428.96C1061.97 432.56 1061.39 434.96 1061.39 436.16C1061.39 436.68 1061.7 436.94 1062.32 436.94C1062.96 436.94 1063.32 436.69 1063.4 436.19ZM1066.64 425.93C1067.22 427.15 1067.72 428.52 1068.14 430.04C1066.94 430.04 1065.9 429.92 1065.02 429.68C1065.44 428.28 1065.98 427.03 1066.64 425.93ZM1082.5 425.03C1084.38 425.03 1085.32 424.62 1085.32 423.8C1085.32 423.4 1085.05 423.14 1084.51 423.02L1075.15 423.32C1074.87 423.34 1074.61 423.47 1074.37 423.71C1074.15 423.95 1074.04 424.19 1074.04 424.43C1074.04 424.95 1074.35 425.21 1074.97 425.21C1076.07 425.21 1077.29 425.16 1078.63 425.06C1078.51 426.44 1078.45 428.23 1078.45 430.43C1078.45 432.27 1078.48 434.18 1078.54 436.16C1078.54 436.72 1078.8 437 1079.32 437C1079.62 437 1079.89 436.91 1080.13 436.73C1080.39 436.53 1080.52 436.29 1080.52 436.01C1080.52 435.29 1080.51 434.73 1080.49 434.33L1080.46 432.08L1080.52 424.97L1082.5 425.03ZM1089.51 436.19C1089.61 435.27 1089.95 433.75 1090.53 431.63C1091.61 431.91 1093.02 432.05 1094.76 432.05L1095.81 436.16C1095.95 436.72 1096.35 437 1097.01 437C1097.27 437 1097.49 436.92 1097.67 436.76C1097.85 436.6 1097.94 436.4 1097.94 436.16C1097.4 433.82 1096.94 431.98 1096.56 430.64C1096.16 429.22 1095.63 427.79 1094.97 426.35C1094.31 424.93 1093.88 424.06 1093.68 423.74C1093.44 423.36 1093.16 423.17 1092.84 423.17C1092.22 423.17 1091.6 423.72 1090.98 424.82C1090.3 426 1089.72 427.38 1089.24 428.96C1088.08 432.56 1087.5 434.96 1087.5 436.16C1087.5 436.68 1087.81 436.94 1088.43 436.94C1089.07 436.94 1089.43 436.69 1089.51 436.19ZM1092.75 425.93C1093.33 427.15 1093.83 428.52 1094.25 430.04C1093.05 430.04 1092.01 429.92 1091.13 429.68C1091.55 428.28 1092.09 427.03 1092.75 425.93ZM1104.34 416.36C1104.26 415.86 1103.85 415.61 1103.11 415.61C1102.37 415.61 1101.91 415.86 1101.73 416.36C1101.73 419.8 1101.88 424.04 1102.18 429.08C1102.38 429.52 1102.63 429.74 1102.93 429.74C1103.17 429.74 1103.41 429.64 1103.65 429.44C1103.89 429.22 1104.04 428.99 1104.1 428.75C1104.08 428.53 1104.07 427.81 1104.07 426.59L1104.34 416.36ZM1104.7 434.48C1104.7 433.9 1104.6 433.52 1104.4 433.34C1104.2 433.14 1103.85 433.04 1103.35 433.04C1102.89 433.04 1102.52 433.19 1102.24 433.49C1101.96 433.71 1101.82 434.02 1101.82 434.42C1101.82 434.84 1101.97 435.22 1102.27 435.56C1102.57 435.88 1102.94 436.05 1103.38 436.07C1104.26 436.07 1104.7 435.54 1104.7 434.48Z" fill="black"/>
<path d="M145.604 404.14C143.564 404.14 141.894 404.58 140.594 405.46C139.294 406.34 138.644 407.53 138.644 409.03C138.644 410.51 139.074 411.64 139.934 412.42C140.814 413.18 142.174 413.72 144.014 414.04C144.854 414.18 145.624 414.39 146.324 414.67C147.724 415.23 148.424 416.21 148.424 417.61C148.424 418.65 148.074 419.55 147.374 420.31C146.694 421.03 145.984 421.39 145.244 421.39C144.484 421.39 143.694 421.23 142.874 420.91C142.814 420.89 142.404 420.7 141.644 420.34C140.884 419.98 140.474 419.79 140.414 419.77C140.354 419.73 140.244 419.71 140.084 419.71C139.924 419.71 139.764 419.75 139.604 419.83C139.324 419.99 139.094 420.19 138.914 420.43C138.734 420.67 138.644 420.89 138.644 421.09C138.644 421.63 139.154 422.17 140.174 422.71C141.714 423.57 143.274 424 144.854 424C146.434 424 147.654 423.66 148.514 422.98C150.054 421.74 150.824 419.85 150.824 417.31C150.824 414.29 149.214 412.49 145.994 411.91C144.634 411.65 143.544 411.34 142.724 410.98C141.704 410.52 141.194 409.8 141.194 408.82C141.194 408.1 141.614 407.49 142.454 406.99C143.274 406.49 144.084 406.24 144.884 406.24C145.664 406.24 146.544 406.47 147.524 406.93C148.464 407.37 149.084 407.59 149.384 407.59C149.664 407.59 149.884 407.48 150.044 407.26C150.204 407.04 150.284 406.78 150.284 406.48C150.284 405.8 149.824 405.24 148.904 404.8C148.024 404.36 146.924 404.14 145.604 404.14ZM153.224 424C153.524 424 153.814 423.9 154.094 423.7C154.374 423.48 154.524 423.25 154.544 423.01C154.624 421.97 154.664 418.72 154.664 413.26C154.664 412.02 154.654 411.29 154.634 411.07C154.614 410.75 154.494 410.51 154.274 410.35C154.074 410.21 153.824 410.14 153.524 410.14C153.224 410.14 152.974 410.23 152.774 410.41C152.594 410.57 152.504 410.79 152.504 411.07L152.384 423.28C152.384 423.76 152.664 424 153.224 424ZM163.765 410.17C161.845 410.17 160.235 410.85 158.935 412.21C157.655 413.55 157.015 415.34 157.015 417.58C157.015 418.62 157.205 419.64 157.585 420.64C157.985 421.62 158.555 422.44 159.295 423.1C160.075 423.76 160.935 424.09 161.875 424.09C162.795 424.09 163.735 423.78 164.695 423.16C164.755 423.5 164.865 423.74 165.025 423.88C165.185 424 165.415 424.06 165.715 424.06C166.035 424.06 166.255 424.01 166.375 423.91C166.515 423.81 166.605 423.63 166.645 423.37C166.725 422.99 166.765 422.47 166.765 421.81V421.12C166.765 420.02 166.615 418.86 166.315 417.64C166.155 417.12 165.765 416.74 165.145 416.5C164.725 416.34 164.195 416.26 163.555 416.26L162.715 416.29C162.075 416.35 161.755 416.74 161.755 417.46C161.755 417.82 161.905 418.06 162.205 418.18C162.525 418.3 163.115 418.36 163.975 418.36C164.355 418.36 164.545 418.88 164.545 419.92C164.545 420.52 164.305 421.02 163.825 421.42C163.365 421.8 162.765 421.99 162.025 421.99C161.305 421.99 160.655 421.55 160.075 420.67C159.515 419.81 159.235 418.74 159.235 417.46C159.235 416.16 159.635 414.99 160.435 413.95C161.255 412.89 162.295 412.36 163.555 412.36C164.055 412.36 164.625 412.51 165.265 412.81C165.665 412.97 165.935 413.05 166.075 413.05C166.375 413.05 166.635 412.95 166.855 412.75C167.075 412.55 167.185 412.31 167.185 412.03C167.185 411.51 166.825 411.07 166.105 410.71C165.385 410.35 164.605 410.17 163.765 410.17ZM171.953 414.64C173.613 416.52 175.203 418.9 176.723 421.78C176.783 421.88 176.903 422.1 177.083 422.44C177.263 422.78 177.523 423.16 177.863 423.58C178.143 423.92 178.533 424.09 179.033 424.09C179.873 424.09 180.293 423.57 180.293 422.53L180.143 411.37C180.143 411.03 180.033 410.75 179.813 410.53C179.593 410.29 179.353 410.17 179.093 410.17C178.433 410.17 178.023 410.55 177.863 411.31V411.55L178.013 414.01C178.133 415.87 178.203 418.03 178.223 420.49C177.223 418.39 175.783 416.18 173.903 413.86C173.123 412.86 172.523 412.17 172.103 411.79C171.683 411.39 171.323 411.19 171.023 411.19C170.463 411.19 170.103 411.46 169.943 412C169.843 412.42 169.793 413 169.793 413.74V414.73L169.553 423.13C169.573 423.39 169.673 423.61 169.853 423.79C170.053 423.95 170.273 424.03 170.513 424.03C171.133 424.03 171.483 423.76 171.563 423.22C171.583 423.14 171.593 422.93 171.593 422.59L171.623 421.93L171.953 414.64ZM201.02 409.45C200.74 409.45 200.47 409.54 200.21 409.72C199.97 409.88 199.81 410.06 199.73 410.26C199.69 410.32 199.58 410.61 199.4 411.13L199.16 411.91C198.38 414.09 196.98 415.18 194.96 415.18C194.26 415.18 193.63 414.78 193.07 413.98C192.51 413.16 192.22 412.25 192.2 411.25C192.18 411.01 192.06 410.82 191.84 410.68C191.62 410.54 191.35 410.47 191.03 410.47C190.75 410.47 190.5 410.6 190.28 410.86C190.06 411.1 189.95 411.37 189.95 411.67V417.58L189.86 423.13C189.86 423.71 190.13 424 190.67 424C191.59 424 192.06 423.58 192.08 422.74C192.12 421.9 192.14 419.8 192.14 416.44C192.76 417.06 193.65 417.37 194.81 417.37C195.95 417.37 196.86 417.19 197.54 416.83C198.24 416.47 198.96 415.84 199.7 414.94C199.7 416.48 199.71 417.6 199.73 418.3C199.77 419.66 199.79 421.23 199.79 423.01C199.79 423.67 200.04 424 200.54 424C201.06 424 201.42 423.87 201.62 423.61C201.86 423.33 201.98 423.04 201.98 422.74C201.98 418 201.95 413.85 201.89 410.29C201.89 409.73 201.6 409.45 201.02 409.45ZM209.674 417.28C210.114 417.28 210.444 417.28 210.664 417.28C210.884 417.26 211.044 417.25 211.144 417.25C211.384 417.21 211.604 417.08 211.804 416.86C212.004 416.64 212.104 416.41 212.104 416.17C212.104 415.69 211.794 415.41 211.174 415.33C208.634 415.33 207.104 415.32 206.584 415.3C206.564 415.16 206.554 414.15 206.554 412.27C207.314 412.33 208.054 412.36 208.774 412.36C210.754 412.36 212.004 412.22 212.524 411.94C212.764 411.78 212.884 411.51 212.884 411.13C212.884 410.63 212.564 410.33 211.924 410.23H211.894L206.644 410.14H205.804C204.904 410.16 204.454 410.54 204.454 411.28C204.454 412.56 204.484 413.98 204.544 415.54C204.324 415.76 204.214 416 204.214 416.26C204.214 416.56 204.344 416.78 204.604 416.92V421.9C204.604 422.54 204.664 423.05 204.784 423.43C204.904 423.81 205.214 424 205.714 424L211.594 423.94C212.374 423.94 212.764 423.52 212.764 422.68C212.764 422.24 212.474 421.99 211.894 421.93L206.704 422.02C206.724 422 206.734 421.72 206.734 421.18L206.674 417.25L209.674 417.28ZM231.104 411.37C231.344 412.51 231.464 414.19 231.464 416.41C231.464 420.13 230.374 421.99 228.194 421.99C227.214 421.99 226.404 421.43 225.764 420.31C225.144 419.19 224.774 417.82 224.654 416.2C224.614 415.4 224.594 414.74 224.594 414.22C224.594 413.12 224.644 412.1 224.744 411.16C224.764 410.9 224.694 410.69 224.534 410.53C224.374 410.37 224.164 410.29 223.904 410.29C223.644 410.29 223.374 410.39 223.094 410.59C222.814 410.77 222.664 410.99 222.644 411.25C222.544 412.31 222.494 413.26 222.494 414.1C222.494 416.26 222.754 418.24 223.274 420.04C223.634 421.26 224.234 422.23 225.074 422.95C225.934 423.65 226.974 424 228.194 424C229.914 424 231.184 423.55 232.004 422.65C232.844 421.73 233.334 420.3 233.474 418.36C233.534 417.82 233.564 417.1 233.564 416.2C233.564 414.6 233.464 412.83 233.264 410.89C233.244 410.67 233.134 410.49 232.934 410.35C232.754 410.21 232.524 410.14 232.244 410.14C231.944 410.14 231.674 410.23 231.434 410.41C231.194 410.61 231.074 410.84 231.074 411.1L231.104 411.37ZM239.69 410.14C237.41 410.14 236.25 410.56 236.21 411.4V422.68C236.21 423.14 236.3 423.48 236.48 423.7C236.66 423.9 237.01 424 237.53 424C238.07 424 238.36 423.77 238.4 423.31C238.44 422.51 238.46 421.82 238.46 421.24C238.46 420.32 238.43 419.23 238.37 417.97C238.87 418.05 239.39 418.09 239.93 418.09C241.19 418.09 242.19 417.81 242.93 417.25C243.95 416.47 244.46 415.26 244.46 413.62C244.46 412.56 244.02 411.72 243.14 411.1C242.28 410.46 241.13 410.14 239.69 410.14ZM238.31 412.27C238.83 412.19 239.22 412.15 239.48 412.15C239.96 412.15 240.47 412.22 241.01 412.36C241.93 412.6 242.41 412.98 242.45 413.5V413.77C242.45 414.63 242.16 415.23 241.58 415.57C241.16 415.81 240.53 415.93 239.69 415.93C239.17 415.93 238.69 415.9 238.25 415.84V414.58C238.25 413.52 238.27 412.75 238.31 412.27ZM250.884 403.36C250.804 402.86 250.394 402.61 249.654 402.61C248.914 402.61 248.454 402.86 248.274 403.36C248.274 406.8 248.424 411.04 248.724 416.08C248.924 416.52 249.174 416.74 249.474 416.74C249.714 416.74 249.954 416.64 250.194 416.44C250.434 416.22 250.584 415.99 250.644 415.75C250.624 415.53 250.614 414.81 250.614 413.59L250.884 403.36ZM251.244 421.48C251.244 420.9 251.144 420.52 250.944 420.34C250.744 420.14 250.394 420.04 249.894 420.04C249.434 420.04 249.064 420.19 248.784 420.49C248.504 420.71 248.364 421.02 248.364 421.42C248.364 421.84 248.514 422.22 248.814 422.56C249.114 422.88 249.484 423.05 249.924 423.07C250.804 423.07 251.244 422.54 251.244 421.48Z" fill="black"/>
<path d="M629.707 61.2929C629.317 60.9024 628.683 60.9024 628.293 61.2929L621.929 67.6569C621.538 68.0474 621.538 68.6805 621.929 69.0711C622.319 69.4616 622.953 69.4616 623.343 69.0711L629 63.4142L634.657 69.0711C635.047 69.4616 635.681 69.4616 636.071 69.0711C636.462 68.6805 636.462 68.0474 636.071 67.6569L629.707 61.2929ZM628.293 766.707C628.683 767.098 629.317 767.098 629.707 766.707L636.071 760.343C636.462 759.953 636.462 759.319 636.071 758.929C635.681 758.538 635.047 758.538 634.657 758.929L629 764.586L623.343 758.929C622.953 758.538 622.319 758.538 621.929 758.929C621.538 759.319 621.538 759.953 621.929 760.343L628.293 766.707ZM628 62V766H630V62H628Z" fill="black"/>
<path d="M980.707 415.707C981.098 415.317 981.098 414.683 980.707 414.293L974.343 407.929C973.953 407.538 973.319 407.538 972.929 407.929C972.538 408.319 972.538 408.953 972.929 409.343L978.586 415L972.929 420.657C972.538 421.047 972.538 421.681 972.929 422.071C973.319 422.462 973.953 422.462 974.343 422.071L980.707 415.707ZM275.293 414.293C274.902 414.683 274.902 415.317 275.293 415.707L281.657 422.071C282.047 422.462 282.681 422.462 283.071 422.071C283.462 421.68 283.462 421.047 283.071 420.657L277.414 415L283.071 409.343C283.462 408.953 283.462 408.319 283.071 407.929C282.681 407.538 282.047 407.538 281.657 407.929L275.293 414.293ZM980 414L276 414L276 416L980 416L980 414Z" fill="black"/>
</svg>
