<svg width="196" height="183" viewBox="0 0 196 183" fill="none" xmlns="http://www.w3.org/2000/svg">
<path fill-rule="evenodd" clip-rule="evenodd" d="M184.906 43.4954C170.961 26.2514 153.005 25.9334 129.186 18.1554C113.317 12.9739 106.906 -1.71529 90.7241 1.1165C70.3851 4.6757 78.9678 26.1623 59.8835 44.0628C44.5328 58.4592 36.277 55.2254 19.6727 70.8351C6.80656 82.9317 -3.67917 104.232 2.92815 113.843C12.5359 127.823 45.8712 110.538 66.6842 129.557C81.5224 143.106 86.7596 170.686 105.206 179.94C115.904 185.309 132.296 181.126 140.053 171.338C147.837 161.515 142.251 153.193 148.292 138.625C155.429 121.408 167.545 119.385 179.878 107.053C200.431 86.4994 198.85 60.7394 184.906 43.4954Z" fill="black"/>
</svg>
