<?xml version="1.0" encoding="utf-8"?>
<!-- Generator: Adobe Illustrator 25.3.1, SVG Export Plug-In . SVG Version: 6.00 Build 0)  -->
<svg version="1.1" id="Layer_1" xmlns="http://www.w3.org/2000/svg" xmlns:xlink="http://www.w3.org/1999/xlink" x="0px" y="0px"
	 viewBox="0 0 1256 807" style="enable-background:new 0 0 1256 807;" xml:space="preserve">
<path d="M630.8,81.9c-0.4-0.4-1-0.4-1.3,0l-6,6c-0.4,0.4-0.4,1,0,1.3c0.4,0.4,1,0.4,1.3,0l5.3-5.3l5.3,5.3c0.4,0.4,1,0.4,1.3,0
	c0.4-0.4,0.4-1,0-1.3L630.8,81.9z M629.4,744.8c0.4,0.4,1,0.4,1.3,0l6-6c0.4-0.4,0.4-1,0-1.3c-0.4-0.4-1-0.4-1.3,0l-5.3,5.3
	l-5.3-5.3c-0.4-0.4-1-0.4-1.3,0c-0.4,0.4-0.4,1,0,1.3L629.4,744.8z M629.2,82.6v661.6h1.9V82.6H629.2z"/>
<path d="M960.6,415c0.4-0.4,0.4-1,0-1.3l-6-6c-0.4-0.4-1-0.4-1.3,0c-0.4,0.4-0.4,1,0,1.3l5.3,5.3l-5.3,5.3c-0.4,0.4-0.4,1,0,1.3
	c0.4,0.4,1,0.4,1.3,0L960.6,415z M297.7,413.7c-0.4,0.4-0.4,1,0,1.3l6,6c0.4,0.4,1,0.4,1.3,0c0.4-0.4,0.4-1,0-1.3l-5.3-5.3l5.3-5.3
	c0.4-0.4,0.4-1,0-1.3c-0.4-0.4-1-0.4-1.3,0L297.7,413.7z M960,413.4H298.4v1.9H960V413.4z"/>
<g>
	<path d="M565.2,64.4c-1,0-2-0.2-2.9-0.6c-0.9-0.4-1.8-1-2.6-1.8l1.8-2.2c0.3,0.3,0.6,0.6,0.9,0.8c0.3,0.2,0.6,0.4,1,0.6
		s0.6,0.3,1,0.3c0.3,0.1,0.6,0.1,0.9,0.1c0.5,0,0.9-0.1,1.2-0.2c0.3-0.1,0.6-0.3,0.7-0.6s0.2-0.5,0.2-0.8c0-0.2,0-0.4-0.1-0.6
		s-0.2-0.3-0.3-0.5c-0.1-0.1-0.3-0.3-0.5-0.4c-0.2-0.1-0.5-0.2-0.7-0.3c-0.2-0.1-0.6-0.2-1-0.4c-0.4-0.1-0.7-0.3-1-0.4
		c-0.3-0.1-0.6-0.2-0.9-0.4c-0.3-0.2-0.6-0.3-0.9-0.5c-0.2-0.2-0.5-0.4-0.7-0.6c-0.2-0.2-0.4-0.5-0.6-0.8c-0.1-0.3-0.3-0.6-0.4-0.9
		c-0.1-0.3-0.1-0.7-0.1-1.1c0-0.8,0.2-1.5,0.6-2.2c0.4-0.7,1-1.2,1.7-1.5c0.7-0.4,1.5-0.6,2.4-0.6c1.8,0,3.5,0.6,5,1.9l-1.7,2.2
		c-1.2-1-2.3-1.5-3.3-1.5c-0.5,0-1,0.1-1.3,0.4c-0.3,0.3-0.5,0.6-0.5,1.1c0,0.2,0,0.4,0.1,0.5c0.1,0.2,0.2,0.3,0.3,0.4
		c0.1,0.1,0.3,0.2,0.5,0.4c0.2,0.1,0.5,0.2,0.7,0.3c0.2,0.1,0.5,0.2,0.9,0.4c1.2,0.5,2.1,0.8,2.5,1.1c0.9,0.5,1.6,1.1,1.9,1.9
		c0.2,0.5,0.3,1,0.3,1.6c0,0.6-0.1,1.2-0.3,1.7s-0.5,1-0.8,1.3c-0.3,0.3-0.8,0.6-1.2,0.9c-0.5,0.2-0.9,0.4-1.4,0.5
		C566.2,64.4,565.7,64.4,565.2,64.4z"/>
	<path d="M580.1,54h2.8v10.3h-2.6V63h-0.1c-0.7,0.9-1.8,1.4-3.1,1.4c-0.7,0-1.4-0.1-2-0.4c-0.6-0.3-1.1-0.6-1.6-1.1
		c-0.4-0.5-0.8-1-1-1.7c-0.2-0.7-0.4-1.4-0.4-2.2c0-0.8,0.1-1.5,0.4-2.1c0.2-0.7,0.6-1.2,1-1.7c0.4-0.5,0.9-0.8,1.5-1.1
		c0.6-0.3,1.2-0.4,1.9-0.4c1.3,0,2.3,0.4,3,1.3h0V54z M577.6,61.9c0.7,0,1.4-0.3,1.9-0.8s0.8-1.2,0.8-2c0-0.8-0.2-1.5-0.7-2.1
		c-0.5-0.5-1.1-0.8-1.9-0.8c-0.8,0-1.4,0.3-1.9,0.8s-0.8,1.2-0.8,2.1c0,0.8,0.2,1.5,0.7,2C576.2,61.7,576.8,61.9,577.6,61.9z"/>
	<path d="M592.2,54h2.9l-4,10.3h-2.6L584.5,54h2.9l2.4,6.9h0L592.2,54z"/>
	<path d="M605.9,59c0,0.5,0,0.8-0.1,1h-7.2c0.2,0.6,0.5,1.1,0.9,1.4c0.5,0.3,1,0.5,1.7,0.5c1,0,1.8-0.4,2.5-1.2l1.8,1.7
		c-0.5,0.6-1.1,1.1-1.8,1.4c-0.8,0.4-1.6,0.5-2.6,0.5c-1,0-1.9-0.2-2.7-0.7c-0.8-0.4-1.4-1.1-1.9-1.9c-0.5-0.8-0.7-1.7-0.7-2.8
		c0-0.8,0.1-1.5,0.4-2.1s0.6-1.2,1.1-1.7c0.4-0.5,1-0.8,1.6-1.1c0.6-0.3,1.3-0.4,2-0.4c1,0,1.9,0.2,2.6,0.7c0.8,0.4,1.4,1.1,1.8,1.9
		C605.6,57.1,605.9,58,605.9,59z M600.9,56.2c-0.6,0-1.1,0.2-1.5,0.5s-0.7,0.8-0.8,1.3h4.5c-0.1-0.6-0.4-1-0.8-1.3
		C602,56.4,601.5,56.2,600.9,56.2z"/>
	<path d="M616.8,64.4c-0.9,0-1.6-0.3-2.2-0.9c-0.5-0.6-0.8-1.4-0.8-2.6v-4.8h-1.2V54h1.2v-3.4l2.8-0.3V54h2.8v2.3h-2.8v4.4
		c0,0.5,0.1,0.8,0.2,1c0.1,0.2,0.4,0.3,0.7,0.3c0.4,0,0.8-0.1,1.3-0.4l0.7,2.2c-0.4,0.2-0.8,0.4-1.2,0.5
		C617.9,64.4,617.4,64.4,616.8,64.4z"/>
	<path d="M627.6,53.8c0.6,0,1.1,0.1,1.5,0.2c0.4,0.2,0.8,0.4,1.2,0.7c0.3,0.3,0.6,0.8,0.8,1.3c0.2,0.6,0.3,1.2,0.3,2v6.2h-2.8v-5.5
		c0-0.9-0.2-1.6-0.5-1.9s-0.8-0.6-1.5-0.6c-0.8,0-1.3,0.2-1.8,0.7c-0.4,0.5-0.6,1.2-0.6,2.1v5.2h-2.8V48.7h2.8v6.5h0
		c0.4-0.5,0.9-0.8,1.5-1.1C626.3,53.9,626.9,53.8,627.6,53.8z"/>
	<path d="M643.6,59c0,0.5,0,0.8-0.1,1h-7.2c0.2,0.6,0.5,1.1,0.9,1.4c0.5,0.3,1,0.5,1.7,0.5c1,0,1.8-0.4,2.5-1.2l1.8,1.7
		c-0.5,0.6-1.1,1.1-1.8,1.4c-0.8,0.4-1.6,0.5-2.6,0.5c-1,0-1.9-0.2-2.7-0.7c-0.8-0.4-1.4-1.1-1.9-1.9c-0.5-0.8-0.7-1.7-0.7-2.8
		c0-0.8,0.1-1.5,0.4-2.1s0.6-1.2,1.1-1.7s1-0.8,1.6-1.1c0.6-0.3,1.3-0.4,2-0.4c1,0,1.9,0.2,2.6,0.7c0.8,0.4,1.4,1.1,1.8,1.9
		C643.4,57.1,643.6,58,643.6,59z M638.6,56.2c-0.6,0-1.1,0.2-1.5,0.5c-0.4,0.3-0.7,0.8-0.8,1.3h4.5c-0.1-0.6-0.4-1-0.8-1.3
		C639.7,56.4,639.2,56.2,638.6,56.2z"/>
	<path d="M663,54h2.8l-3.5,10.3h-2.4l-1.8-6.3h0l-1.8,6.3h-2.4L650.4,54h2.8l2,6.3h0L657,54h2.2l1.8,6.3h0L663,54z"/>
	<path d="M671.9,64.4c-0.6,0-1.3-0.1-1.8-0.3c-0.6-0.2-1.1-0.4-1.5-0.7c-0.4-0.3-0.8-0.7-1.1-1.1c-0.3-0.4-0.6-0.9-0.7-1.5
		s-0.3-1.1-0.3-1.7c0-0.8,0.1-1.5,0.4-2.1c0.3-0.7,0.6-1.2,1.1-1.7c0.5-0.5,1.1-0.8,1.7-1.1c0.7-0.3,1.4-0.4,2.2-0.4
		c0.8,0,1.5,0.1,2.2,0.4c0.7,0.3,1.3,0.6,1.7,1.1c0.5,0.5,0.9,1,1.1,1.7s0.4,1.4,0.4,2.2c0,1-0.2,2-0.7,2.8
		c-0.5,0.8-1.1,1.4-1.9,1.9C673.9,64.2,672.9,64.4,671.9,64.4z M671.9,61.9c0.8,0,1.4-0.3,1.9-0.8c0.5-0.5,0.8-1.2,0.8-2
		c0-0.8-0.3-1.5-0.8-2.1c-0.5-0.5-1.1-0.8-1.9-0.8c-0.8,0-1.4,0.3-1.9,0.8s-0.7,1.2-0.7,2c0,0.8,0.3,1.5,0.8,2
		C670.5,61.7,671.1,61.9,671.9,61.9z"/>
	<path d="M685.5,53.8c0.1,0,0.2,0,0.2,0v3c-0.3,0-0.5,0-0.7,0c-0.8,0-1.5,0.2-1.9,0.8s-0.7,1.1-0.7,1.9v4.8h-2.8V54h2.8v1.5h0
		c0.4-0.5,0.9-1,1.4-1.2C684.3,53.9,684.8,53.8,685.5,53.8z"/>
	<path d="M687.6,64.2V48.7h2.8v15.5H687.6z"/>
	<path d="M700.7,48.7h2.8v15.5h-2.6V63h-0.1c-0.7,0.9-1.8,1.4-3.1,1.4c-0.4,0-0.8,0-1.2-0.1c-0.4-0.1-0.7-0.2-1.1-0.4
		c-0.3-0.2-0.6-0.4-0.9-0.6c-0.3-0.2-0.5-0.5-0.8-0.8s-0.4-0.6-0.6-1s-0.3-0.7-0.4-1.1c-0.1-0.4-0.1-0.8-0.1-1.3
		c0-0.8,0.1-1.5,0.4-2.1c0.2-0.7,0.6-1.2,1-1.7c0.4-0.5,0.9-0.8,1.5-1.1c0.6-0.3,1.2-0.4,1.9-0.4c1.3,0,2.3,0.4,3.1,1.3h0.1V48.7z
		 M698.1,61.9c0.5,0,1-0.1,1.4-0.3c0.4-0.2,0.7-0.6,1-1c0.2-0.4,0.4-0.9,0.4-1.5c0-0.8-0.3-1.5-0.8-2.1c-0.5-0.5-1.2-0.8-1.9-0.8
		c-0.8,0-1.4,0.3-1.9,0.8c-0.5,0.5-0.8,1.2-0.8,2.1c0,0.8,0.2,1.5,0.7,2S697.3,61.9,698.1,61.9z"/>
</g>
<g>
	<path d="M229.5,406.8c-1,0-2-0.2-2.9-0.6c-0.9-0.4-1.8-1-2.6-1.8l1.8-2.2c0.3,0.3,0.6,0.6,0.9,0.8c0.3,0.2,0.6,0.4,1,0.6
		c0.3,0.2,0.6,0.3,1,0.3c0.3,0.1,0.6,0.1,0.9,0.1c0.5,0,0.9-0.1,1.2-0.2c0.3-0.1,0.6-0.3,0.7-0.6c0.2-0.2,0.2-0.5,0.2-0.8
		c0-0.2,0-0.4-0.1-0.6s-0.2-0.3-0.3-0.5c-0.1-0.1-0.3-0.3-0.5-0.4c-0.2-0.1-0.5-0.2-0.7-0.3c-0.2-0.1-0.6-0.2-1-0.4
		c-0.4-0.1-0.7-0.3-1-0.4c-0.3-0.1-0.6-0.2-0.9-0.4c-0.3-0.2-0.6-0.3-0.9-0.5c-0.2-0.2-0.5-0.4-0.7-0.6c-0.2-0.2-0.4-0.5-0.6-0.8
		c-0.1-0.3-0.3-0.6-0.4-0.9c-0.1-0.3-0.1-0.7-0.1-1.1c0-0.8,0.2-1.5,0.6-2.2c0.4-0.7,1-1.2,1.7-1.5c0.7-0.4,1.5-0.6,2.4-0.6
		c1.8,0,3.5,0.6,5,1.9l-1.7,2.2c-1.2-1-2.3-1.5-3.3-1.5c-0.5,0-1,0.1-1.3,0.4c-0.3,0.3-0.5,0.6-0.5,1.1c0,0.2,0,0.4,0.1,0.5
		c0.1,0.2,0.2,0.3,0.3,0.4c0.1,0.1,0.3,0.2,0.5,0.4c0.2,0.1,0.5,0.2,0.7,0.3c0.2,0.1,0.5,0.2,0.9,0.4c1.2,0.5,2.1,0.8,2.5,1.1
		c0.9,0.5,1.6,1.1,1.9,1.9c0.2,0.5,0.3,1,0.3,1.6c0,0.6-0.1,1.2-0.3,1.7s-0.5,1-0.8,1.3s-0.8,0.6-1.2,0.9c-0.5,0.2-0.9,0.4-1.4,0.5
		C230.5,406.7,230,406.8,229.5,406.8z"/>
	<path d="M239,394.8c-0.3,0-0.6-0.1-0.9-0.2c-0.3-0.2-0.5-0.4-0.6-0.6c-0.2-0.3-0.2-0.5-0.2-0.8c0-0.5,0.2-0.9,0.5-1.2
		s0.7-0.5,1.2-0.5c0.5,0,0.9,0.2,1.2,0.5s0.5,0.7,0.5,1.2c0,0.5-0.2,0.9-0.5,1.2S239.4,394.8,239,394.8z M237.6,406.6v-10.3h2.8
		v10.3H237.6z"/>
	<path d="M250.6,396.3h2.8v9.1c0,0.7-0.1,1.3-0.2,1.8c-0.1,0.5-0.3,1.1-0.6,1.5c-0.3,0.5-0.6,0.9-1,1.2c-0.4,0.3-0.9,0.6-1.5,0.8
		c-0.6,0.2-1.3,0.3-2.1,0.3c-1.6,0-3-0.3-4.2-1l0.6-2.3c0.6,0.3,1.1,0.5,1.6,0.7c0.5,0.2,1.1,0.2,1.7,0.2c0.9,0,1.6-0.2,2.1-0.6
		c0.5-0.4,0.8-1,0.8-1.6v-1h-0.1c-0.8,0.8-1.8,1.2-3,1.2c-0.9,0-1.8-0.2-2.5-0.6c-0.7-0.4-1.3-1-1.7-1.8c-0.4-0.8-0.6-1.6-0.6-2.6
		c0-1,0.2-1.9,0.6-2.7c0.4-0.8,1-1.4,1.7-1.9s1.5-0.7,2.4-0.7c0.6,0,1.2,0.1,1.7,0.3c0.5,0.2,1,0.5,1.4,0.9h0.1V396.3z M248.1,403.9
		c0.8,0,1.4-0.2,1.9-0.8c0.5-0.5,0.7-1.1,0.7-1.9s-0.2-1.4-0.7-1.9c-0.5-0.5-1.1-0.7-1.9-0.7c-0.8,0-1.4,0.2-1.9,0.7
		s-0.7,1.1-0.7,1.9c0,0.3,0,0.6,0.1,0.9c0.1,0.3,0.2,0.5,0.4,0.7c0.2,0.2,0.3,0.4,0.6,0.5c0.2,0.2,0.5,0.3,0.7,0.3
		C247.5,403.9,247.8,403.9,248.1,403.9z"/>
	<path d="M262.1,396.1c0.6,0,1.1,0.1,1.5,0.2s0.8,0.4,1.2,0.7s0.6,0.8,0.8,1.4c0.2,0.6,0.3,1.2,0.3,2v6.1h-2.8v-5.4
		c0-0.9-0.2-1.6-0.5-2c-0.3-0.4-0.8-0.6-1.5-0.6c-0.7,0-1.3,0.2-1.7,0.7c-0.4,0.5-0.6,1.2-0.6,2.1v5.2H256v-10.3h2.8v1.3h0
		c0.4-0.5,0.9-0.9,1.5-1.1C260.9,396.3,261.5,396.1,262.1,396.1z"/>
	<path d="M228.4,421.4c1.2,0,2,0.4,2.7,1.1c0.6,0.7,1,1.9,1,3.4v6h-2.8v-5.3c0-1.8-0.6-2.7-1.8-2.7c-0.4,0-0.7,0.1-1.1,0.3
		c-0.3,0.2-0.6,0.5-0.8,1c-0.2,0.4-0.3,1-0.3,1.5v5.2h-2.8v-5.3c0-1.8-0.6-2.7-1.8-2.7c-0.4,0-0.8,0.1-1.1,0.3
		c-0.3,0.2-0.6,0.5-0.8,1c-0.2,0.4-0.3,1-0.3,1.5v5.1h-2.8v-10.3h2.8v1.4h0c0.4-0.5,0.9-0.9,1.4-1.1c0.5-0.3,1.1-0.4,1.7-0.4
		c1.4,0,2.5,0.6,3.1,1.7h0c0.4-0.5,0.9-0.9,1.5-1.2C227,421.5,227.6,421.4,228.4,421.4z"/>
	<path d="M244.2,426.6c0,0.5,0,0.8-0.1,1H237c0.2,0.6,0.5,1.1,0.9,1.4c0.5,0.3,1,0.5,1.7,0.5c1,0,1.8-0.4,2.5-1.2l1.8,1.7
		c-0.5,0.6-1.1,1.1-1.8,1.4c-0.8,0.4-1.6,0.5-2.6,0.5c-1,0-1.9-0.2-2.7-0.7c-0.8-0.4-1.4-1.1-1.9-1.9c-0.5-0.8-0.7-1.7-0.7-2.8
		c0-0.8,0.1-1.5,0.4-2.1c0.3-0.7,0.6-1.2,1.1-1.7c0.4-0.5,1-0.8,1.6-1.1c0.6-0.3,1.3-0.4,2-0.4c1,0,1.9,0.2,2.6,0.7
		c0.8,0.4,1.4,1.1,1.8,1.9C244,424.7,244.2,425.6,244.2,426.6z M239.3,423.8c-0.6,0-1.1,0.2-1.5,0.5s-0.7,0.8-0.8,1.3h4.5
		c-0.1-0.6-0.4-1-0.8-1.3C240.3,424,239.9,423.8,239.3,423.8z"/>
	<path d="M258.7,421.6h2.8v10.3h-2.8v-1.3h0c-0.4,0.5-0.9,0.8-1.4,1.1s-1.1,0.4-1.7,0.4c-0.6,0-1.1-0.1-1.5-0.2s-0.8-0.4-1.2-0.7
		s-0.6-0.8-0.8-1.3c-0.2-0.6-0.3-1.2-0.3-2v-6.2h2.8v5.5c0,0.9,0.1,1.6,0.4,1.9c0.3,0.4,0.8,0.6,1.4,0.6c0.6,0,1.2-0.3,1.6-0.8
		c0.4-0.5,0.7-1.3,0.7-2.2V421.6z"/>
	<path d="M270,421.4c0.5,0,1.1,0.1,1.6,0.3s0.9,0.4,1.3,0.7c0.4,0.3,0.7,0.7,1,1.1s0.5,0.9,0.7,1.5c0.2,0.6,0.2,1.1,0.2,1.8
		c0,0.8-0.1,1.5-0.4,2.2c-0.2,0.7-0.6,1.2-1,1.7c-0.4,0.5-1,0.8-1.6,1.1c-0.6,0.3-1.3,0.4-2,0.4c-1.3,0-2.3-0.4-3-1.3h0v5.3h-2.8
		v-14.4h2.8v1.2h0C267.7,421.8,268.7,421.4,270,421.4z M269.5,429.6c0.8,0,1.4-0.3,1.9-0.8c0.5-0.5,0.7-1.2,0.7-2
		c0-0.9-0.3-1.6-0.8-2.1c-0.5-0.5-1.1-0.8-1.9-0.8c-0.4,0-0.8,0.1-1.1,0.2s-0.6,0.3-0.8,0.6c-0.2,0.3-0.4,0.6-0.6,0.9
		s-0.2,0.7-0.2,1.1c0,0.5,0.1,1,0.4,1.5c0.2,0.4,0.6,0.8,1,1C268.5,429.4,269,429.6,269.5,429.6z"/>
	<path d="M278.6,432c-0.5,0-0.9-0.2-1.2-0.5c-0.3-0.3-0.5-0.7-0.5-1.2c0-0.5,0.2-0.9,0.5-1.2c0.3-0.3,0.7-0.5,1.2-0.5
		c0.5,0,0.9,0.2,1.2,0.5c0.3,0.3,0.5,0.7,0.5,1.2c0,0.5-0.2,0.9-0.5,1.2S279,432,278.6,432z M277.6,426.9l-0.5-10.6h3l-0.5,10.6
		H277.6z"/>
</g>
<g>
	<path d="M981.7,406.6v-15h3v6.5h6.1v-6.5h3v15h-3v-5.8h-6.1v5.8H981.7z"/>
	<path d="M1004.1,396.3h2.8v10.3h-2.6v-1.2h-0.1c-0.7,0.9-1.8,1.4-3.1,1.4c-0.7,0-1.4-0.1-2-0.4c-0.6-0.3-1.1-0.6-1.6-1.1
		c-0.4-0.5-0.8-1-1-1.7s-0.4-1.4-0.4-2.2c0-0.8,0.1-1.5,0.4-2.1s0.6-1.2,1-1.7s0.9-0.8,1.5-1.1c0.6-0.3,1.2-0.4,1.9-0.4
		c1.3,0,2.3,0.4,3,1.3h0V396.3z M1001.6,404.3c0.7,0,1.4-0.3,1.9-0.8c0.5-0.5,0.8-1.2,0.8-2c0-0.8-0.2-1.5-0.7-2.1
		c-0.5-0.5-1.1-0.8-1.9-0.8c-0.8,0-1.4,0.3-1.9,0.8s-0.8,1.2-0.8,2.1c0,0.8,0.2,1.5,0.7,2C1000.2,404,1000.9,404.3,1001.6,404.3z"/>
	<path d="M1015.7,396.1c0.6,0,1.1,0.1,1.5,0.2s0.8,0.4,1.2,0.7c0.3,0.3,0.6,0.8,0.8,1.4c0.2,0.6,0.3,1.2,0.3,2v6.1h-2.8v-5.4
		c0-0.9-0.2-1.6-0.5-2s-0.8-0.6-1.5-0.6c-0.7,0-1.3,0.2-1.7,0.7c-0.4,0.5-0.6,1.2-0.6,2.1v5.2h-2.8v-10.3h2.8v1.3h0
		c0.4-0.5,0.9-0.9,1.5-1.1C1014.4,396.3,1015,396.1,1015.7,396.1z"/>
	<path d="M1029.5,391.1h2.8v15.5h-2.6v-1.2h-0.1c-0.7,0.9-1.8,1.4-3.1,1.4c-0.4,0-0.8,0-1.2-0.1c-0.4-0.1-0.7-0.2-1.1-0.4
		c-0.3-0.2-0.6-0.4-0.9-0.6c-0.3-0.2-0.5-0.5-0.8-0.8s-0.4-0.6-0.6-1s-0.3-0.7-0.4-1.1c-0.1-0.4-0.1-0.8-0.1-1.3
		c0-0.8,0.1-1.5,0.4-2.1c0.2-0.7,0.6-1.2,1-1.7c0.4-0.5,0.9-0.8,1.5-1.1c0.6-0.3,1.2-0.4,1.9-0.4c1.3,0,2.3,0.4,3.1,1.3h0.1V391.1z
		 M1026.9,404.3c0.5,0,1-0.1,1.4-0.3s0.7-0.6,1-1c0.2-0.4,0.4-0.9,0.4-1.5c0-0.8-0.3-1.5-0.8-2.1c-0.5-0.5-1.2-0.8-1.9-0.8
		c-0.8,0-1.4,0.3-1.9,0.8c-0.5,0.5-0.8,1.2-0.8,2.1c0,0.8,0.2,1.5,0.7,2C1025.5,404,1026.1,404.3,1026.9,404.3z"/>
	<path d="M1038.3,406.8c-1.6,0-3-0.5-4.2-1.5l1.3-1.9c0.9,0.8,1.8,1.2,2.8,1.2c0.4,0,0.7-0.1,0.9-0.2c0.2-0.2,0.3-0.4,0.3-0.6
		c0-0.2-0.1-0.3-0.2-0.4c-0.1-0.1-0.3-0.2-0.6-0.3c-0.2-0.1-0.6-0.2-1.1-0.4c-0.3-0.1-0.6-0.2-0.8-0.3c-0.2-0.1-0.5-0.2-0.7-0.4
		s-0.5-0.3-0.7-0.5s-0.3-0.4-0.5-0.6c-0.1-0.2-0.3-0.5-0.3-0.7c-0.1-0.3-0.1-0.6-0.1-0.9c0-0.6,0.2-1.1,0.5-1.6
		c0.3-0.5,0.8-0.8,1.3-1.1c0.6-0.3,1.2-0.4,1.9-0.4c0.7,0,1.4,0.1,2,0.3s1.2,0.5,1.8,1l-1.3,2c-0.4-0.4-0.8-0.6-1.2-0.8
		s-0.8-0.3-1.2-0.3c-0.3,0-0.5,0.1-0.7,0.2c-0.2,0.1-0.3,0.3-0.3,0.6c0,0.2,0.1,0.4,0.4,0.6s0.6,0.3,1.2,0.6c1.1,0.4,1.9,0.8,2.3,1
		c0.7,0.4,1.1,1,1.2,1.6c0,0.2,0.1,0.4,0.1,0.7c0,1-0.3,1.7-1,2.3C1040.6,406.5,1039.6,406.8,1038.3,406.8z"/>
	<path d="M1054.9,406.8c-0.6,0-1.3-0.1-1.8-0.3c-0.6-0.2-1.1-0.4-1.5-0.7s-0.8-0.7-1.1-1.1s-0.6-0.9-0.7-1.5s-0.3-1.1-0.3-1.7
		c0-0.8,0.1-1.5,0.4-2.1c0.3-0.7,0.6-1.2,1.1-1.7c0.5-0.5,1.1-0.8,1.7-1.1c0.7-0.3,1.4-0.4,2.2-0.4c0.8,0,1.5,0.1,2.2,0.4
		c0.7,0.3,1.3,0.6,1.7,1.1c0.5,0.5,0.9,1,1.1,1.7s0.4,1.4,0.4,2.2c0,1-0.2,2-0.7,2.8c-0.5,0.8-1.1,1.4-1.9,1.9
		C1056.9,406.5,1055.9,406.8,1054.9,406.8z M1054.9,404.3c0.8,0,1.4-0.3,1.9-0.8c0.5-0.5,0.8-1.2,0.8-2c0-0.8-0.3-1.5-0.8-2.1
		c-0.5-0.5-1.1-0.8-1.9-0.8c-0.8,0-1.4,0.3-1.9,0.8s-0.7,1.2-0.7,2c0,0.8,0.3,1.5,0.8,2C1053.5,404,1054.1,404.3,1054.9,404.3z"/>
	<path d="M1062.9,406.6v-8h-1.1v-2.3h1.1v-1.8c0-0.8,0.1-1.5,0.4-2c0.3-0.5,0.6-1,1.1-1.2c0.5-0.3,1.1-0.4,1.7-0.4
		c0.6,0,1.1,0.1,1.5,0.2s0.8,0.3,1.1,0.5l-0.6,2.2c-0.6-0.3-1.1-0.5-1.5-0.5c-0.7,0-1,0.5-1,1.4v1.6h2.3v2.3h-2.3v8H1062.9z"/>
	<path d="M1070.2,406.6v-8h-1.1v-2.3h1.1v-1.8c0-0.8,0.1-1.5,0.4-2c0.3-0.5,0.6-1,1.1-1.2c0.5-0.3,1.1-0.4,1.7-0.4
		c0.6,0,1.1,0.1,1.5,0.2s0.8,0.3,1.1,0.5l-0.6,2.2c-0.6-0.3-1.1-0.5-1.5-0.5c-0.7,0-1,0.5-1,1.4v1.6h2.3v2.3h-2.3v8H1070.2z"/>
	<path d="M998.3,421.4c1.2,0,2,0.4,2.7,1.1s1,1.9,1,3.4v6h-2.8v-5.3c0-1.8-0.6-2.7-1.8-2.7c-0.4,0-0.7,0.1-1.1,0.3
		c-0.3,0.2-0.6,0.5-0.8,1c-0.2,0.4-0.3,1-0.3,1.5v5.2h-2.8v-5.3c0-1.8-0.6-2.7-1.8-2.7c-0.4,0-0.8,0.1-1.1,0.3
		c-0.3,0.2-0.6,0.5-0.8,1c-0.2,0.4-0.3,1-0.3,1.5v5.1h-2.8v-10.3h2.8v1.4h0c0.4-0.5,0.9-0.9,1.4-1.1c0.5-0.3,1.1-0.4,1.7-0.4
		c1.4,0,2.5,0.6,3.1,1.7h0c0.4-0.5,0.9-0.9,1.5-1.2C996.9,421.5,997.5,421.4,998.3,421.4z"/>
	<path d="M1010.8,421.6h2.9l-5.5,14.4h-2.8l1.8-4.8l-4.1-9.6h2.9l2.5,6.4h0L1010.8,421.6z"/>
	<path d="M1028.4,416.3h2.8v15.5h-2.6v-1.2h-0.1c-0.7,0.9-1.8,1.4-3.1,1.4c-0.4,0-0.8,0-1.2-0.1c-0.4-0.1-0.7-0.2-1.1-0.4
		c-0.3-0.2-0.6-0.4-0.9-0.6c-0.3-0.2-0.5-0.5-0.8-0.8s-0.4-0.6-0.6-1s-0.3-0.7-0.4-1.1c-0.1-0.4-0.1-0.8-0.1-1.3
		c0-0.8,0.1-1.5,0.4-2.1c0.2-0.7,0.6-1.2,1-1.7c0.4-0.5,0.9-0.8,1.5-1.1s1.2-0.4,1.9-0.4c1.3,0,2.3,0.4,3.1,1.3h0.1V416.3z
		 M1025.8,429.6c0.5,0,1-0.1,1.4-0.3c0.4-0.2,0.7-0.6,1-1s0.4-0.9,0.4-1.5c0-0.8-0.3-1.5-0.8-2.1c-0.5-0.5-1.2-0.8-1.9-0.8
		c-0.8,0-1.4,0.3-1.9,0.8c-0.5,0.5-0.8,1.2-0.8,2.1c0,0.8,0.2,1.5,0.7,2C1024.4,429.3,1025,429.6,1025.8,429.6z"/>
	<path d="M1041.3,421.6h2.8v10.3h-2.6v-1.2h-0.1c-0.7,0.9-1.8,1.4-3.1,1.4c-0.7,0-1.4-0.1-2-0.4c-0.6-0.3-1.1-0.6-1.6-1.1
		c-0.4-0.5-0.8-1-1-1.7c-0.2-0.7-0.4-1.4-0.4-2.2c0-0.8,0.1-1.5,0.4-2.1s0.6-1.2,1-1.7c0.4-0.5,0.9-0.8,1.5-1.1
		c0.6-0.3,1.2-0.4,1.9-0.4c1.3,0,2.3,0.4,3,1.3h0V421.6z M1038.8,429.6c0.7,0,1.4-0.3,1.9-0.8c0.5-0.5,0.8-1.2,0.8-2
		c0-0.8-0.2-1.5-0.7-2.1c-0.5-0.5-1.1-0.8-1.9-0.8c-0.8,0-1.4,0.3-1.9,0.8c-0.5,0.5-0.8,1.2-0.8,2.1c0,0.8,0.2,1.5,0.7,2
		C1037.4,429.3,1038,429.6,1038.8,429.6z"/>
	<path d="M1049.9,432c-0.9,0-1.6-0.3-2.2-0.9c-0.5-0.6-0.8-1.4-0.8-2.6v-4.8h-1.2v-2.3h1.2v-3.4l2.8-0.3v3.7h2.8v2.3h-2.8v4.4
		c0,0.5,0.1,0.8,0.2,1c0.1,0.2,0.4,0.3,0.7,0.3c0.4,0,0.8-0.1,1.3-0.4l0.7,2.2c-0.4,0.2-0.8,0.4-1.2,0.5
		C1051.1,432,1050.6,432,1049.9,432z"/>
	<path d="M1061.5,421.6h2.8v10.3h-2.6v-1.2h-0.1c-0.7,0.9-1.8,1.4-3.1,1.4c-0.7,0-1.4-0.1-2-0.4c-0.6-0.3-1.1-0.6-1.6-1.1
		c-0.4-0.5-0.8-1-1-1.7c-0.2-0.7-0.4-1.4-0.4-2.2c0-0.8,0.1-1.5,0.4-2.1s0.6-1.2,1-1.7c0.4-0.5,0.9-0.8,1.5-1.1
		c0.6-0.3,1.2-0.4,1.9-0.4c1.3,0,2.3,0.4,3,1.3h0V421.6z M1059,429.6c0.7,0,1.4-0.3,1.9-0.8c0.5-0.5,0.8-1.2,0.8-2
		c0-0.8-0.2-1.5-0.7-2.1c-0.5-0.5-1.1-0.8-1.9-0.8c-0.8,0-1.4,0.3-1.9,0.8c-0.5,0.5-0.8,1.2-0.8,2.1c0,0.8,0.2,1.5,0.7,2
		C1057.6,429.3,1058.2,429.6,1059,429.6z"/>
	<path d="M1068.5,432c-0.5,0-0.9-0.2-1.2-0.5c-0.3-0.3-0.5-0.7-0.5-1.2c0-0.5,0.2-0.9,0.5-1.2c0.3-0.3,0.7-0.5,1.2-0.5
		c0.5,0,0.9,0.2,1.2,0.5c0.3,0.3,0.5,0.7,0.5,1.2c0,0.5-0.2,0.9-0.5,1.2C1069.4,431.9,1069,432,1068.5,432z M1067.5,426.9l-0.5-10.6
		h3l-0.5,10.6H1067.5z"/>
</g>
<g>
	<path d="M580.2,776.9c-1.1,0-2.1-0.2-3-0.5c-0.9-0.3-1.7-0.8-2.4-1.5c-0.7-0.6-1.2-1.4-1.6-2.4c-0.4-1-0.6-2-0.6-3.2
		c0-1.1,0.2-2.1,0.5-3s0.8-1.8,1.5-2.4s1.4-1.2,2.4-1.6c0.9-0.4,2-0.6,3.1-0.6c1.1,0,2.2,0.2,3.2,0.7c1.1,0.4,2,1.1,2.7,1.9
		l-2.1,1.8c-1.1-1-2.4-1.6-3.8-1.6c-0.6,0-1.2,0.1-1.7,0.3s-1,0.5-1.4,1s-0.7,0.9-0.9,1.5c-0.2,0.6-0.3,1.3-0.3,2.1
		c0,0.9,0.2,1.7,0.5,2.5c0.4,0.7,0.9,1.3,1.6,1.8c0.7,0.4,1.5,0.7,2.4,0.7c1.1,0,2.1-0.3,3-0.9v-2.2h-3.4v-2.5h6.2v6.4
		c-0.7,0.6-1.6,1-2.6,1.3C582.4,776.7,581.3,776.9,580.2,776.9z"/>
	<path d="M598.3,771.5c0,0.5,0,0.8-0.1,1h-7.2c0.2,0.6,0.5,1.1,0.9,1.4c0.5,0.3,1,0.5,1.7,0.5c1,0,1.8-0.4,2.5-1.2l1.8,1.7
		c-0.5,0.6-1.1,1.1-1.8,1.4c-0.8,0.4-1.6,0.5-2.6,0.5c-1,0-1.9-0.2-2.7-0.7c-0.8-0.4-1.4-1.1-1.9-1.9c-0.5-0.8-0.7-1.7-0.7-2.8
		c0-0.8,0.1-1.5,0.4-2.1c0.3-0.7,0.6-1.2,1.1-1.7c0.4-0.5,1-0.8,1.6-1.1c0.6-0.3,1.3-0.4,2-0.4c1,0,1.9,0.2,2.6,0.7
		c0.8,0.4,1.4,1.1,1.8,1.9C598.1,769.6,598.3,770.5,598.3,771.5z M593.4,768.7c-0.6,0-1.1,0.2-1.5,0.5s-0.7,0.8-0.8,1.3h4.5
		c-0.1-0.6-0.4-1-0.8-1.3C594.4,768.9,594,768.7,593.4,768.7z"/>
	<path d="M603.7,776.9c-0.9,0-1.6-0.3-2.2-0.9c-0.5-0.6-0.8-1.4-0.8-2.6v-4.8h-1.2v-2.3h1.2v-3.4l2.8-0.3v3.7h2.8v2.3h-2.8v4.4
		c0,0.5,0.1,0.8,0.2,1c0.1,0.2,0.4,0.3,0.7,0.3c0.4,0,0.8-0.1,1.3-0.4l0.7,2.2c-0.4,0.2-0.8,0.4-1.2,0.5
		C604.9,776.9,604.4,776.9,603.7,776.9z"/>
	<path d="M617.1,776.9c-0.9,0-1.6-0.3-2.2-0.9c-0.5-0.6-0.8-1.4-0.8-2.6v-4.8H613v-2.3h1.2v-3.4l2.8-0.3v3.7h2.8v2.3H617v4.4
		c0,0.5,0.1,0.8,0.2,1c0.1,0.2,0.4,0.3,0.7,0.3c0.4,0,0.8-0.1,1.3-0.4l0.7,2.2c-0.4,0.2-0.8,0.4-1.2,0.5
		C618.3,776.9,617.8,776.9,617.1,776.9z"/>
	<path d="M627.9,766.3c0.6,0,1.1,0.1,1.5,0.2s0.8,0.4,1.2,0.7s0.6,0.8,0.8,1.3s0.3,1.2,0.3,2v6.2H629v-5.5c0-0.9-0.2-1.6-0.5-1.9
		c-0.3-0.4-0.8-0.6-1.5-0.6c-0.8,0-1.3,0.2-1.8,0.7c-0.4,0.5-0.6,1.2-0.6,2.1v5.2h-2.8v-15.5h2.8v6.5h0c0.4-0.5,0.9-0.8,1.5-1.1
		C626.7,766.4,627.3,766.3,627.9,766.3z"/>
	<path d="M643.9,771.5c0,0.5,0,0.8-0.1,1h-7.2c0.2,0.6,0.5,1.1,0.9,1.4s1,0.5,1.7,0.5c1,0,1.8-0.4,2.5-1.2l1.8,1.7
		c-0.5,0.6-1.1,1.1-1.8,1.4c-0.8,0.4-1.6,0.5-2.6,0.5c-1,0-1.9-0.2-2.7-0.7c-0.8-0.4-1.4-1.1-1.9-1.9c-0.5-0.8-0.7-1.7-0.7-2.8
		c0-0.8,0.1-1.5,0.4-2.1c0.3-0.7,0.6-1.2,1.1-1.7c0.4-0.5,1-0.8,1.6-1.1s1.3-0.4,2-0.4c1,0,1.9,0.2,2.6,0.7c0.8,0.4,1.4,1.1,1.8,1.9
		C643.7,769.6,643.9,770.5,643.9,771.5z M639,768.7c-0.6,0-1.1,0.2-1.5,0.5c-0.4,0.3-0.7,0.8-0.8,1.3h4.5c-0.1-0.6-0.4-1-0.8-1.3
		C640.1,768.9,639.6,768.7,639,768.7z"/>
	<path d="M657.6,766.3c0.7,0,1.3,0.1,1.9,0.4c0.6,0.3,1.1,0.6,1.5,1.1c0.4,0.5,0.8,1,1,1.7c0.2,0.7,0.4,1.4,0.4,2.1
		c0,0.8-0.1,1.5-0.4,2.2c-0.2,0.7-0.6,1.2-1,1.7c-0.4,0.5-1,0.8-1.6,1.1c-0.6,0.3-1.3,0.4-2,0.4c-1.3,0-2.4-0.5-3.1-1.4h-0.1v1.2
		h-2.6v-15.5h2.8v6.4h0.1C655.3,766.7,656.3,766.3,657.6,766.3z M657,774.5c0.8,0,1.4-0.3,1.9-0.8c0.5-0.5,0.7-1.2,0.7-2
		c0-0.9-0.2-1.6-0.8-2.1c-0.5-0.5-1.1-0.8-1.9-0.8c-0.8,0-1.4,0.3-1.9,0.8s-0.8,1.2-0.8,2.1c0,0.8,0.3,1.5,0.8,2
		C655.6,774.2,656.2,774.5,657,774.5z"/>
	<path d="M674.3,771.5c0,0.5,0,0.8-0.1,1H667c0.2,0.6,0.5,1.1,0.9,1.4s1,0.5,1.7,0.5c1,0,1.8-0.4,2.5-1.2l1.8,1.7
		c-0.5,0.6-1.1,1.1-1.8,1.4c-0.8,0.4-1.6,0.5-2.6,0.5c-1,0-1.9-0.2-2.7-0.7c-0.8-0.4-1.4-1.1-1.9-1.9c-0.5-0.8-0.7-1.7-0.7-2.8
		c0-0.8,0.1-1.5,0.4-2.1c0.3-0.7,0.6-1.2,1.1-1.7s1-0.8,1.6-1.1s1.3-0.4,2-0.4c1,0,1.9,0.2,2.6,0.7s1.4,1.1,1.8,1.9
		C674.1,769.6,674.3,770.5,674.3,771.5z M669.3,768.7c-0.6,0-1.1,0.2-1.5,0.5s-0.7,0.8-0.8,1.3h4.5c-0.1-0.6-0.4-1-0.8-1.3
		C670.4,768.9,669.9,768.7,669.3,768.7z"/>
	<path d="M679.8,776.9c-1.6,0-3-0.5-4.2-1.5l1.3-1.9c0.9,0.8,1.8,1.2,2.8,1.2c0.4,0,0.7-0.1,0.9-0.2c0.2-0.2,0.3-0.4,0.3-0.6
		c0-0.2-0.1-0.3-0.2-0.4c-0.1-0.1-0.3-0.2-0.6-0.3c-0.2-0.1-0.6-0.2-1.1-0.4c-0.3-0.1-0.6-0.2-0.8-0.3c-0.2-0.1-0.5-0.2-0.7-0.4
		c-0.3-0.1-0.5-0.3-0.7-0.5c-0.2-0.2-0.3-0.4-0.5-0.6c-0.1-0.2-0.3-0.5-0.3-0.7c-0.1-0.3-0.1-0.6-0.1-0.9c0-0.6,0.2-1.2,0.5-1.6
		c0.3-0.5,0.8-0.8,1.3-1.1c0.6-0.3,1.2-0.4,1.9-0.4c0.7,0,1.4,0.1,2,0.3c0.6,0.2,1.2,0.5,1.8,1l-1.3,2c-0.4-0.4-0.8-0.6-1.2-0.8
		s-0.8-0.3-1.2-0.3c-0.3,0-0.5,0.1-0.7,0.2s-0.3,0.3-0.3,0.6c0,0.2,0.1,0.4,0.4,0.6c0.2,0.2,0.6,0.3,1.2,0.6c1.1,0.4,1.9,0.8,2.3,1
		c0.7,0.4,1.1,1,1.2,1.6c0,0.2,0.1,0.4,0.1,0.7c0,1-0.3,1.7-1,2.3C682.1,776.6,681.1,776.9,679.8,776.9z"/>
	<path d="M689.1,776.9c-0.9,0-1.6-0.3-2.2-0.9c-0.5-0.6-0.8-1.4-0.8-2.6v-4.8h-1.2v-2.3h1.2v-3.4l2.8-0.3v3.7h2.8v2.3h-2.8v4.4
		c0,0.5,0.1,0.8,0.2,1c0.1,0.2,0.4,0.3,0.7,0.3c0.4,0,0.8-0.1,1.3-0.4l0.7,2.2c-0.4,0.2-0.8,0.4-1.2,0.5
		C690.2,776.9,689.7,776.9,689.1,776.9z"/>
	<path d="M588.9,796.8c0,0.5,0,0.8-0.1,1h-7.2c0.2,0.6,0.5,1.1,0.9,1.4c0.5,0.3,1,0.5,1.7,0.5c1,0,1.8-0.4,2.5-1.2l1.8,1.7
		c-0.5,0.6-1.1,1.1-1.8,1.4c-0.8,0.4-1.6,0.5-2.6,0.5c-1,0-1.9-0.2-2.7-0.7c-0.8-0.4-1.4-1.1-1.9-1.9c-0.5-0.8-0.7-1.7-0.7-2.8
		c0-0.8,0.1-1.5,0.4-2.1c0.3-0.7,0.6-1.2,1.1-1.7c0.4-0.5,1-0.8,1.6-1.1c0.6-0.3,1.3-0.4,2-0.4c1,0,1.9,0.2,2.6,0.7
		c0.8,0.4,1.4,1.1,1.8,1.9C588.7,794.9,588.9,795.8,588.9,796.8z M583.9,794c-0.6,0-1.1,0.2-1.5,0.5s-0.7,0.8-0.8,1.3h4.5
		c-0.1-0.6-0.4-1-0.8-1.3C585,794.2,584.5,794,583.9,794z"/>
	<path d="M596.8,802l-2.1-3h-0.1l-2.1,3h-3l3.5-5.3l-3.5-5h3.1l1.9,2.9h0.1l1.9-2.9h3.1l-3.5,5l3.6,5.3H596.8z"/>
	<path d="M607.6,791.6c0.5,0,1.1,0.1,1.6,0.3s0.9,0.4,1.3,0.7c0.4,0.3,0.7,0.7,1,1.1s0.5,0.9,0.7,1.5c0.2,0.6,0.2,1.1,0.2,1.8
		c0,0.8-0.1,1.5-0.4,2.2c-0.2,0.7-0.6,1.2-1,1.7c-0.4,0.5-1,0.8-1.6,1.1c-0.6,0.3-1.3,0.4-2,0.4c-1.3,0-2.3-0.4-3-1.3h0v5.3h-2.8
		v-14.4h2.8v1.2h0C605.2,792,606.3,791.6,607.6,791.6z M607,799.7c0.8,0,1.4-0.3,1.9-0.8c0.5-0.5,0.7-1.2,0.7-2
		c0-0.9-0.3-1.6-0.8-2.1c-0.5-0.5-1.1-0.8-1.9-0.8c-0.4,0-0.8,0.1-1.1,0.2s-0.6,0.3-0.8,0.6c-0.2,0.3-0.4,0.6-0.6,0.9
		s-0.2,0.7-0.2,1.1c0,0.5,0.1,1,0.4,1.5c0.2,0.4,0.6,0.8,1,1C606,799.6,606.5,799.7,607,799.7z"/>
	<path d="M624.2,796.8c0,0.5,0,0.8-0.1,1H617c0.2,0.6,0.5,1.1,0.9,1.4c0.5,0.3,1,0.5,1.7,0.5c1,0,1.8-0.4,2.5-1.2l1.8,1.7
		c-0.5,0.6-1.1,1.1-1.8,1.4c-0.8,0.4-1.6,0.5-2.6,0.5c-1,0-1.9-0.2-2.7-0.7c-0.8-0.4-1.4-1.1-1.9-1.9c-0.5-0.8-0.7-1.7-0.7-2.8
		c0-0.8,0.1-1.5,0.4-2.1c0.3-0.7,0.6-1.2,1.1-1.7c0.4-0.5,1-0.8,1.6-1.1c0.6-0.3,1.3-0.4,2-0.4c1,0,1.9,0.2,2.6,0.7
		c0.8,0.4,1.4,1.1,1.8,1.9C624,794.9,624.2,795.8,624.2,796.8z M619.3,794c-0.6,0-1.1,0.2-1.5,0.5s-0.7,0.8-0.8,1.3h4.5
		c-0.1-0.6-0.4-1-0.8-1.3C620.3,794.2,619.9,794,619.3,794z"/>
	<path d="M632.3,791.6c0.1,0,0.2,0,0.2,0v3c-0.3,0-0.5,0-0.7,0c-0.8,0-1.5,0.2-1.9,0.8c-0.5,0.5-0.7,1.1-0.7,1.9v4.8h-2.8v-10.3h2.8
		v1.5h0c0.4-0.5,0.9-1,1.4-1.2C631.1,791.7,631.7,791.6,632.3,791.6z"/>
	<path d="M635.8,790.3c-0.3,0-0.6-0.1-0.9-0.2c-0.3-0.2-0.5-0.4-0.6-0.6c-0.2-0.3-0.2-0.5-0.2-0.8c0-0.5,0.2-0.9,0.5-1.2
		c0.3-0.3,0.7-0.5,1.2-0.5c0.5,0,0.9,0.2,1.2,0.5s0.5,0.7,0.5,1.2c0,0.5-0.2,0.9-0.5,1.2S636.3,790.3,635.8,790.3z M634.5,802v-10.3
		h2.8V802H634.5z"/>
	<path d="M649.7,796.8c0,0.5,0,0.8-0.1,1h-7.2c0.2,0.6,0.5,1.1,0.9,1.4c0.5,0.3,1,0.5,1.7,0.5c1,0,1.8-0.4,2.5-1.2l1.8,1.7
		c-0.5,0.6-1.1,1.1-1.8,1.4c-0.8,0.4-1.6,0.5-2.6,0.5c-1,0-1.9-0.2-2.7-0.7c-0.8-0.4-1.4-1.1-1.9-1.9c-0.5-0.8-0.7-1.7-0.7-2.8
		c0-0.8,0.1-1.5,0.4-2.1c0.3-0.7,0.6-1.2,1.1-1.7s1-0.8,1.6-1.1c0.6-0.3,1.3-0.4,2-0.4c1,0,1.9,0.2,2.6,0.7s1.4,1.1,1.8,1.9
		C649.5,794.9,649.7,795.8,649.7,796.8z M644.8,794c-0.6,0-1.1,0.2-1.5,0.5c-0.4,0.3-0.7,0.8-0.8,1.3h4.5c-0.1-0.6-0.4-1-0.8-1.3
		C645.8,794.2,645.3,794,644.8,794z"/>
	<path d="M658,791.6c0.6,0,1.1,0.1,1.5,0.2c0.4,0.2,0.8,0.4,1.2,0.7c0.3,0.3,0.6,0.8,0.8,1.4c0.2,0.6,0.3,1.2,0.3,2v6.1H659v-5.4
		c0-0.9-0.2-1.6-0.5-2c-0.3-0.4-0.8-0.6-1.5-0.6c-0.7,0-1.3,0.2-1.7,0.7c-0.4,0.5-0.6,1.2-0.6,2.1v5.2h-2.8v-10.3h2.8v1.3h0
		c0.4-0.5,0.9-0.9,1.5-1.1S657.4,791.6,658,791.6z"/>
	<path d="M669.1,802.2c-1,0-1.9-0.2-2.7-0.7c-0.8-0.4-1.4-1.1-1.9-1.9c-0.5-0.8-0.7-1.7-0.7-2.8c0-1,0.2-2,0.7-2.8
		c0.5-0.8,1.1-1.4,1.9-1.9c0.8-0.4,1.8-0.7,2.8-0.7c0.8,0,1.7,0.2,2.4,0.5c0.8,0.3,1.4,0.8,1.9,1.5l-1.9,1.6
		c-0.6-0.7-1.4-1.1-2.4-1.1c-0.4,0-0.8,0.1-1.1,0.2s-0.6,0.3-0.9,0.6c-0.2,0.2-0.4,0.5-0.6,0.9s-0.2,0.7-0.2,1.1
		c0,0.8,0.3,1.5,0.8,2.1c0.5,0.5,1.2,0.8,2,0.8c0.5,0,1-0.1,1.4-0.3c0.4-0.2,0.7-0.4,1-0.7l1.9,1.7c-0.5,0.5-1.1,1-1.9,1.3
		C671,802,670.1,802.2,669.1,802.2z"/>
	<path d="M685.2,796.8c0,0.5,0,0.8-0.1,1h-7.2c0.2,0.6,0.5,1.1,0.9,1.4s1,0.5,1.7,0.5c1,0,1.8-0.4,2.5-1.2l1.8,1.7
		c-0.5,0.6-1.1,1.1-1.8,1.4c-0.8,0.4-1.6,0.5-2.6,0.5c-1,0-1.9-0.2-2.7-0.7c-0.8-0.4-1.4-1.1-1.9-1.9c-0.5-0.8-0.7-1.7-0.7-2.8
		c0-0.8,0.1-1.5,0.4-2.1c0.3-0.7,0.6-1.2,1.1-1.7s1-0.8,1.6-1.1s1.3-0.4,2-0.4c1,0,1.9,0.2,2.6,0.7s1.4,1.1,1.8,1.9
		C684.9,794.9,685.2,795.8,685.2,796.8z M680.2,794c-0.6,0-1.1,0.2-1.5,0.5s-0.7,0.8-0.8,1.3h4.5c-0.1-0.6-0.4-1-0.8-1.3
		C681.3,794.2,680.8,794,680.2,794z"/>
</g>
</svg>
