<?xml version="1.0" encoding="utf-8"?>
<!-- Generator: Adobe Illustrator 25.3.1, SVG Export Plug-In . SVG Version: 6.00 Build 0)  -->
<svg version="1.1" id="Layer_1" xmlns="http://www.w3.org/2000/svg" xmlns:xlink="http://www.w3.org/1999/xlink" x="0px" y="0px"
	 viewBox="0 0 1256 807" style="enable-background:new 0 0 1256 807;" xml:space="preserve">
<path d="M630.8,81.9c-0.4-0.4-1-0.4-1.3,0l-6,6c-0.4,0.4-0.4,1,0,1.3c0.4,0.4,1,0.4,1.3,0l5.3-5.3l5.3,5.3c0.4,0.4,1,0.4,1.3,0
	c0.4-0.4,0.4-1,0-1.3L630.8,81.9z M629.4,744.8c0.4,0.4,1,0.4,1.3,0l6-6c0.4-0.4,0.4-1,0-1.3c-0.4-0.4-1-0.4-1.3,0l-5.3,5.3
	l-5.3-5.3c-0.4-0.4-1-0.4-1.3,0c-0.4,0.4-0.4,1,0,1.3L629.4,744.8z M629.2,82.6v661.6h1.9V82.6H629.2z"/>
<path d="M960.6,415c0.4-0.4,0.4-1,0-1.3l-6-6c-0.4-0.4-1-0.4-1.3,0c-0.4,0.4-0.4,1,0,1.3l5.3,5.3l-5.3,5.3c-0.4,0.4-0.4,1,0,1.3
	c0.4,0.4,1,0.4,1.3,0L960.6,415z M297.7,413.7c-0.4,0.4-0.4,1,0,1.3l6,6c0.4,0.4,1,0.4,1.3,0c0.4-0.4,0.4-1,0-1.3l-5.3-5.3l5.3-5.3
	c0.4-0.4,0.4-1,0-1.3c-0.4-0.4-1-0.4-1.3,0L297.7,413.7z M960,413.4H298.4v1.9H960V413.4z"/>
<g>
	<path d="M562.4,47.1c0.9,0.5,2.2,1,3.5,1c2,0,3.2-1.1,3.2-2.6c0-1.4-0.8-2.2-2.9-3c-2.5-0.9-4-2.2-4-4.3c0-2.4,2-4.1,4.9-4.1
		c1.6,0,2.7,0.4,3.4,0.7l-0.5,1.6c-0.5-0.3-1.5-0.7-2.9-0.7c-2.1,0-2.9,1.2-2.9,2.3c0,1.4,0.9,2.1,3,2.9c2.6,1,3.9,2.2,3.9,4.5
		c0,2.3-1.7,4.4-5.3,4.4c-1.5,0-3.1-0.4-3.9-1L562.4,47.1z"/>
	<path d="M579.8,49.5l-0.2-1.4h-0.1c-0.6,0.9-1.8,1.6-3.3,1.6c-2.2,0-3.3-1.6-3.3-3.1c0-2.6,2.3-4.1,6.6-4.1v-0.2
		c0-0.9-0.2-2.5-2.5-2.5c-1,0-2.1,0.3-2.8,0.8l-0.5-1.3c0.9-0.6,2.2-1,3.6-1c3.3,0,4.2,2.3,4.2,4.5v4.1c0,0.9,0,1.9,0.2,2.6H579.8z
		 M579.5,43.9c-2.2,0-4.6,0.3-4.6,2.5c0,1.3,0.9,1.9,1.9,1.9c1.4,0,2.3-0.9,2.6-1.8c0.1-0.2,0.1-0.4,0.1-0.6V43.9z"/>
	<path d="M585.3,38.6l2.1,6.1c0.4,1,0.7,1.9,0.9,2.8h0.1c0.2-0.9,0.6-1.8,0.9-2.8l2.1-6.1h2.1l-4.3,10.9h-1.9l-4.2-10.9H585.3z"/>
	<path d="M596.2,44.4c0,2.7,1.8,3.8,3.7,3.8c1.4,0,2.3-0.2,3-0.6l0.3,1.4c-0.7,0.3-1.9,0.7-3.6,0.7c-3.4,0-5.4-2.2-5.4-5.5
		c0-3.3,1.9-5.9,5.1-5.9c3.6,0,4.5,3.1,4.5,5.1c0,0.4,0,0.7-0.1,0.9H596.2z M602,43c0-1.3-0.5-3.2-2.8-3.2c-2,0-2.9,1.8-3,3.2H602z"
		/>
	<path d="M613.6,35.5v3.1h2.8v1.5h-2.8V46c0,1.4,0.4,2.1,1.5,2.1c0.5,0,0.9-0.1,1.2-0.1l0.1,1.5c-0.4,0.2-1,0.3-1.8,0.3
		c-0.9,0-1.7-0.3-2.1-0.8c-0.6-0.6-0.8-1.6-0.8-2.8v-6H610v-1.5h1.7V36L613.6,35.5z"/>
	<path d="M618.7,33.5h2v6.8h0c0.3-0.6,0.8-1.1,1.4-1.4c0.6-0.3,1.3-0.6,2-0.6c1.5,0,3.8,0.9,3.8,4.7v6.5h-2v-6.3
		c0-1.8-0.7-3.2-2.5-3.2c-1.3,0-2.3,0.9-2.7,2c-0.1,0.3-0.1,0.6-0.1,0.9v6.6h-2V33.5z"/>
	<path d="M632.3,44.4c0,2.7,1.8,3.8,3.7,3.8c1.4,0,2.3-0.2,3-0.6l0.3,1.4c-0.7,0.3-1.9,0.7-3.6,0.7c-3.4,0-5.4-2.2-5.4-5.5
		c0-3.3,1.9-5.9,5.1-5.9c3.6,0,4.5,3.1,4.5,5.1c0,0.4,0,0.7-0.1,0.9H632.3z M638.1,43c0-1.3-0.5-3.2-2.8-3.2c-2,0-2.9,1.8-3,3.2
		H638.1z"/>
	<path d="M648,38.6l1.4,5.5c0.3,1.2,0.6,2.3,0.8,3.5h0.1c0.2-1.1,0.6-2.3,1-3.5l1.8-5.6h1.7l1.7,5.5c0.4,1.3,0.7,2.5,1,3.6h0.1
		c0.2-1.1,0.5-2.3,0.8-3.5l1.6-5.5h2l-3.5,10.9h-1.8l-1.7-5.2c-0.4-1.2-0.7-2.3-1-3.6h0c-0.3,1.3-0.6,2.4-1,3.6l-1.8,5.2h-1.8
		L646,38.6H648z"/>
	<path d="M673.5,44c0,4-2.8,5.8-5.4,5.8c-3,0-5.2-2.2-5.2-5.6c0-3.7,2.4-5.8,5.4-5.8C671.4,38.3,673.5,40.6,673.5,44z M664.8,44.1
		c0,2.4,1.4,4.2,3.3,4.2c1.9,0,3.3-1.8,3.3-4.2c0-1.8-0.9-4.2-3.3-4.2S664.8,42,664.8,44.1z"/>
	<path d="M676,42c0-1.3,0-2.4-0.1-3.4h1.7l0.1,2.1h0.1c0.5-1.5,1.7-2.4,3-2.4c0.2,0,0.4,0,0.6,0.1v1.9c-0.2,0-0.4-0.1-0.7-0.1
		c-1.4,0-2.4,1.1-2.7,2.5c0,0.3-0.1,0.6-0.1,0.9v5.8h-2V42z"/>
	<path d="M683.5,33.5h2v16h-2V33.5z"/>
	<path d="M698.2,33.5v13.2c0,1,0,2.1,0.1,2.8h-1.8l-0.1-1.9h0c-0.6,1.2-1.9,2.1-3.7,2.1c-2.6,0-4.7-2.2-4.7-5.5
		c0-3.6,2.2-5.9,4.9-5.9c1.7,0,2.8,0.8,3.3,1.7h0v-6.5H698.2z M696.2,43c0-0.2,0-0.6-0.1-0.8c-0.3-1.3-1.4-2.3-2.9-2.3
		c-2.1,0-3.3,1.8-3.3,4.2c0,2.2,1.1,4,3.2,4c1.3,0,2.5-0.9,2.9-2.4c0.1-0.3,0.1-0.5,0.1-0.9V43z"/>
</g>
<g>
	<path d="M586.8,770.6c-0.9,0.3-2.6,0.8-4.7,0.8c-2.3,0-4.2-0.6-5.7-2c-1.3-1.3-2.1-3.3-2.1-5.7c0-4.5,3.1-7.8,8.2-7.8
		c1.8,0,3.1,0.4,3.8,0.7l-0.5,1.6c-0.8-0.4-1.8-0.7-3.4-0.7c-3.7,0-6.1,2.3-6.1,6.1c0,3.9,2.3,6.1,5.9,6.1c1.3,0,2.2-0.2,2.6-0.4
		v-4.5h-3.1v-1.6h5V770.6z"/>
	<path d="M591,766.2c0,2.7,1.8,3.8,3.7,3.8c1.4,0,2.3-0.2,3-0.6l0.3,1.4c-0.7,0.3-1.9,0.7-3.6,0.7c-3.4,0-5.4-2.2-5.4-5.5
		c0-3.3,1.9-5.9,5.1-5.9c3.6,0,4.5,3.1,4.5,5.1c0,0.4,0,0.7-0.1,0.9H591z M596.8,764.8c0-1.3-0.5-3.2-2.8-3.2c-2,0-2.9,1.8-3,3.2
		H596.8z"/>
	<path d="M603.5,757.3v3.1h2.8v1.5h-2.8v5.9c0,1.4,0.4,2.1,1.5,2.1c0.5,0,0.9-0.1,1.2-0.1l0.1,1.5c-0.4,0.2-1,0.3-1.8,0.3
		c-0.9,0-1.7-0.3-2.1-0.8c-0.6-0.6-0.8-1.6-0.8-2.8v-6h-1.7v-1.5h1.7v-2.6L603.5,757.3z"/>
	<path d="M615.8,757.3v3.1h2.8v1.5h-2.8v5.9c0,1.4,0.4,2.1,1.5,2.1c0.5,0,0.9-0.1,1.2-0.1l0.1,1.5c-0.4,0.2-1,0.3-1.8,0.3
		c-0.9,0-1.7-0.3-2.1-0.8c-0.6-0.6-0.8-1.6-0.8-2.8v-6h-1.7v-1.5h1.7v-2.6L615.8,757.3z"/>
	<path d="M620.9,755.3h2v6.8h0c0.3-0.6,0.8-1.1,1.4-1.4c0.6-0.3,1.3-0.6,2-0.6c1.5,0,3.8,0.9,3.8,4.7v6.5h-2V765
		c0-1.8-0.7-3.2-2.5-3.2c-1.3,0-2.3,0.9-2.7,2c-0.1,0.3-0.1,0.6-0.1,0.9v6.6h-2V755.3z"/>
	<path d="M634.5,766.2c0,2.7,1.8,3.8,3.7,3.8c1.4,0,2.3-0.2,3-0.6l0.3,1.4c-0.7,0.3-1.9,0.7-3.6,0.7c-3.4,0-5.4-2.2-5.4-5.5
		c0-3.3,1.9-5.9,5.1-5.9c3.6,0,4.5,3.1,4.5,5.1c0,0.4,0,0.7-0.1,0.9H634.5z M640.3,764.8c0-1.3-0.5-3.2-2.8-3.2c-2,0-2.9,1.8-3,3.2
		H640.3z"/>
	<path d="M649.4,771.3c0-0.7,0.1-1.9,0.1-2.8v-13.2h2v6.9h0c0.7-1.2,2-2,3.7-2c2.7,0,4.6,2.3,4.6,5.6c0,3.9-2.5,5.8-4.9,5.8
		c-1.6,0-2.8-0.6-3.7-2.1h-0.1l-0.1,1.8H649.4z M651.4,766.9c0,0.2,0,0.5,0.1,0.7c0.4,1.4,1.5,2.3,3,2.3c2.1,0,3.3-1.7,3.3-4.2
		c0-2.2-1.1-4.1-3.2-4.1c-1.4,0-2.6,0.9-3,2.4c0,0.2-0.1,0.5-0.1,0.8V766.9z"/>
	<path d="M663.4,766.2c0,2.7,1.8,3.8,3.7,3.8c1.4,0,2.3-0.2,3-0.6l0.3,1.4c-0.7,0.3-1.9,0.7-3.6,0.7c-3.4,0-5.4-2.2-5.4-5.5
		c0-3.3,1.9-5.9,5.1-5.9c3.6,0,4.5,3.1,4.5,5.1c0,0.4,0,0.7-0.1,0.9H663.4z M669.2,764.8c0-1.3-0.5-3.2-2.8-3.2c-2,0-2.9,1.8-3,3.2
		H669.2z"/>
	<path d="M673.3,769.3c0.6,0.4,1.6,0.8,2.6,0.8c1.4,0,2.1-0.7,2.1-1.6c0-0.9-0.6-1.5-2-2c-2-0.7-2.9-1.8-2.9-3.1
		c0-1.8,1.4-3.2,3.8-3.2c1.1,0,2.1,0.3,2.7,0.7l-0.5,1.4c-0.4-0.3-1.2-0.6-2.2-0.6c-1.2,0-1.8,0.7-1.8,1.5c0,0.9,0.7,1.3,2.1,1.8
		c1.9,0.7,2.9,1.7,2.9,3.3c0,1.9-1.5,3.3-4.1,3.3c-1.2,0-2.3-0.3-3.1-0.7L673.3,769.3z"/>
	<path d="M684.9,757.3v3.1h2.8v1.5h-2.8v5.9c0,1.4,0.4,2.1,1.5,2.1c0.5,0,0.9-0.1,1.2-0.1l0.1,1.5c-0.4,0.2-1,0.3-1.8,0.3
		c-0.9,0-1.7-0.3-2.1-0.8c-0.6-0.6-0.8-1.6-0.8-2.8v-6h-1.7v-1.5h1.7v-2.6L684.9,757.3z"/>
	<path d="M581.9,793.3c0,2.7,1.8,3.8,3.7,3.8c1.4,0,2.3-0.2,3-0.6l0.3,1.4c-0.7,0.3-1.9,0.7-3.6,0.7c-3.4,0-5.4-2.2-5.4-5.5
		c0-3.3,1.9-5.9,5.1-5.9c3.6,0,4.5,3.1,4.5,5.1c0,0.4,0,0.7-0.1,0.9H581.9z M587.7,791.9c0-1.3-0.5-3.2-2.8-3.2c-2,0-2.9,1.8-3,3.2
		H587.7z"/>
	<path d="M592.9,787.5l1.6,2.3c0.4,0.6,0.7,1.2,1.1,1.8h0.1c0.4-0.7,0.7-1.2,1.1-1.8l1.5-2.3h2.1l-3.7,5.3l3.8,5.6h-2.3l-1.6-2.5
		c-0.4-0.6-0.8-1.2-1.2-1.9h0c-0.4,0.7-0.7,1.2-1.2,1.9l-1.6,2.5h-2.2l3.9-5.6l-3.7-5.3H592.9z"/>
	<path d="M602.4,791c0-1.4,0-2.5-0.1-3.6h1.8l0.1,1.9h0c0.8-1.3,2.1-2.1,3.9-2.1c2.6,0,4.6,2.2,4.6,5.5c0,3.9-2.4,5.9-5,5.9
		c-1.4,0-2.7-0.6-3.4-1.7h0v5.9h-2V791z M604.4,793.9c0,0.3,0,0.6,0.1,0.8c0.4,1.4,1.6,2.3,3,2.3c2.1,0,3.3-1.7,3.3-4.2
		c0-2.2-1.2-4.1-3.2-4.1c-1.4,0-2.6,1-3,2.5c-0.1,0.2-0.1,0.5-0.1,0.8V793.9z"/>
	<path d="M616.4,793.3c0,2.7,1.8,3.8,3.7,3.8c1.4,0,2.3-0.2,3-0.6l0.3,1.4c-0.7,0.3-1.9,0.7-3.6,0.7c-3.4,0-5.4-2.2-5.4-5.5
		c0-3.3,1.9-5.9,5.1-5.9c3.6,0,4.5,3.1,4.5,5.1c0,0.4,0,0.7-0.1,0.9H616.4z M622.2,791.9c0-1.3-0.5-3.2-2.8-3.2c-2,0-2.9,1.8-3,3.2
		H622.2z"/>
	<path d="M626.6,790.9c0-1.3,0-2.4-0.1-3.4h1.7l0.1,2.1h0.1c0.5-1.5,1.7-2.4,3-2.4c0.2,0,0.4,0,0.6,0.1v1.9c-0.2,0-0.4-0.1-0.7-0.1
		c-1.4,0-2.4,1.1-2.7,2.5c0,0.3-0.1,0.6-0.1,0.9v5.8h-2V790.9z"/>
	<path d="M636.3,784.4c0,0.7-0.5,1.2-1.3,1.2c-0.7,0-1.2-0.5-1.2-1.2c0-0.7,0.5-1.2,1.2-1.2C635.8,783.2,636.3,783.7,636.3,784.4z
		 M634,798.4v-10.9h2v10.9H634z"/>
	<path d="M640.4,793.3c0,2.7,1.8,3.8,3.7,3.8c1.4,0,2.3-0.2,3-0.6l0.3,1.4c-0.7,0.3-1.9,0.7-3.6,0.7c-3.4,0-5.4-2.2-5.4-5.5
		c0-3.3,1.9-5.9,5.1-5.9c3.6,0,4.5,3.1,4.5,5.1c0,0.4,0,0.7-0.1,0.9H640.4z M646.2,791.9c0-1.3-0.5-3.2-2.8-3.2c-2,0-2.9,1.8-3,3.2
		H646.2z"/>
	<path d="M650.6,790.4c0-1.1,0-2.1-0.1-3h1.8l0.1,1.8h0c0.5-1,1.8-2.1,3.6-2.1c1.5,0,3.9,0.9,3.9,4.6v6.5h-2v-6.3
		c0-1.8-0.7-3.2-2.5-3.2c-1.3,0-2.3,0.9-2.7,2c-0.1,0.2-0.1,0.6-0.1,0.9v6.6h-2V790.4z"/>
	<path d="M670.9,798c-0.5,0.3-1.7,0.6-3.1,0.6c-3.3,0-5.4-2.2-5.4-5.6c0-3.4,2.3-5.8,5.9-5.8c1.2,0,2.2,0.3,2.8,0.6l-0.5,1.5
		c-0.5-0.3-1.2-0.5-2.3-0.5c-2.5,0-3.9,1.8-3.9,4.1c0,2.5,1.6,4.1,3.8,4.1c1.1,0,1.9-0.3,2.4-0.5L670.9,798z"/>
	<path d="M674.2,793.3c0,2.7,1.8,3.8,3.7,3.8c1.4,0,2.3-0.2,3-0.6l0.3,1.4c-0.7,0.3-1.9,0.7-3.6,0.7c-3.4,0-5.4-2.2-5.4-5.5
		c0-3.3,1.9-5.9,5.1-5.9c3.6,0,4.5,3.1,4.5,5.1c0,0.4,0,0.7-0.1,0.9H674.2z M680,791.9c0-1.3-0.5-3.2-2.8-3.2c-2,0-2.9,1.8-3,3.2
		H680z"/>
</g>
<g>
	<path d="M988.5,406.9v-16h2v7.5h8.4v-7.5h2v16h-2v-6.7h-8.4v6.7H988.5z"/>
	<path d="M1013.1,396h1.8v11h-1.8v-1.7h0c-0.4,0.6-1,1.1-1.7,1.4s-1.4,0.5-2.2,0.5c-0.7,0-1.5-0.1-2.1-0.4s-1.2-0.6-1.7-1.1
		c-0.5-0.5-0.9-1.1-1.1-1.8s-0.4-1.5-0.4-2.3c0-1.1,0.2-2,0.7-2.9s1.1-1.5,1.9-2s1.7-0.7,2.8-0.7c0.8,0,1.5,0.2,2.1,0.5
		c0.6,0.3,1.2,0.7,1.7,1.3h0V396z M1009.5,405.4c0.5,0,1-0.1,1.4-0.3c0.4-0.2,0.8-0.4,1.2-0.8c0.3-0.3,0.6-0.7,0.8-1.2
		c0.2-0.5,0.3-1,0.3-1.6c0-0.6-0.1-1.1-0.3-1.6c-0.2-0.5-0.4-0.9-0.8-1.3s-0.7-0.6-1.2-0.9c-0.5-0.2-0.9-0.3-1.5-0.3
		c-1.1,0-2,0.4-2.7,1.1c-0.7,0.7-1.1,1.7-1.1,2.9c0,1.1,0.3,2.1,1,2.8S1008.4,405.4,1009.5,405.4z"/>
	<path d="M1024.1,395.8c1.2,0,2.2,0.4,2.9,1.2c0.7,0.8,1.1,1.9,1.1,3.4v6.5h-1.8v-6c0-0.6-0.1-1.2-0.2-1.6c-0.1-0.4-0.3-0.8-0.6-1.1
		c-0.2-0.3-0.5-0.5-0.8-0.6s-0.7-0.2-1.1-0.2c-1,0-1.9,0.4-2.5,1.1c-0.6,0.7-0.9,1.7-0.9,2.9v5.5h-1.8v-11h1.8v1.9h0
		c0.5-0.7,1-1.2,1.7-1.5C1022.6,396,1023.3,395.8,1024.1,395.8z"/>
	<path d="M1039.8,390.3h1.8v16.6h-1.8v-1.7h0c-0.3,0.4-0.6,0.7-1,1c-0.4,0.3-0.8,0.5-1.3,0.6s-1,0.2-1.5,0.2c-0.7,0-1.5-0.1-2.1-0.4
		s-1.2-0.6-1.7-1.1c-0.5-0.5-0.9-1.1-1.1-1.8c-0.3-0.7-0.4-1.5-0.4-2.3c0-0.8,0.1-1.6,0.4-2.3c0.3-0.7,0.6-1.3,1.1-1.8
		c0.5-0.5,1-0.9,1.7-1.2s1.4-0.4,2.1-0.4c0.5,0,1,0.1,1.4,0.2c0.5,0.1,0.9,0.3,1.3,0.6c0.4,0.3,0.7,0.6,1,1h0V390.3z M1036.3,405.4
		c0.5,0,0.9-0.1,1.4-0.3c0.4-0.2,0.8-0.4,1.2-0.8c0.3-0.3,0.6-0.7,0.8-1.2c0.2-0.5,0.3-1,0.3-1.6c0-0.6-0.1-1.1-0.3-1.6
		c-0.2-0.5-0.4-0.9-0.8-1.3c-0.3-0.4-0.7-0.6-1.2-0.9c-0.4-0.2-0.9-0.3-1.4-0.3c-1.1,0-2,0.4-2.7,1.1c-0.7,0.7-1.1,1.7-1.1,2.9
		c0,1.1,0.3,2.1,1,2.8C1034.3,405,1035.2,405.4,1036.3,405.4z"/>
	<path d="M1048.5,407.1c-1.7,0-3.1-0.5-4.3-1.6l0.9-1.4c0.5,0.4,1,0.8,1.5,1s1.2,0.3,1.9,0.3c0.6,0,1.1-0.1,1.5-0.4
		c0.4-0.3,0.6-0.6,0.6-1c0-0.1,0-0.2,0-0.3c0-0.1-0.1-0.2-0.1-0.3c-0.1-0.1-0.1-0.2-0.2-0.2s-0.2-0.1-0.3-0.2
		c-0.1-0.1-0.2-0.1-0.3-0.2c-0.1,0-0.2-0.1-0.4-0.2c-0.2-0.1-0.3-0.1-0.4-0.2s-0.3-0.1-0.5-0.2c-0.1,0-0.2-0.1-0.3-0.1
		c-0.4-0.1-0.8-0.3-1-0.4c-0.3-0.1-0.6-0.3-0.9-0.5s-0.6-0.4-0.7-0.6s-0.3-0.5-0.5-0.8c-0.1-0.3-0.2-0.7-0.2-1.1
		c0-0.8,0.3-1.5,1-2.1c0.7-0.6,1.6-0.8,2.6-0.8c1.4,0,2.7,0.5,3.8,1.4l-0.9,1.4c-0.9-0.8-1.9-1.1-2.9-1.1c-0.4,0-0.8,0.1-1.2,0.4
		c-0.3,0.2-0.5,0.5-0.5,0.9c0,0.2,0,0.4,0.1,0.6s0.3,0.3,0.5,0.5s0.4,0.3,0.6,0.4c0.2,0.1,0.5,0.2,0.8,0.3c1.2,0.5,1.9,0.7,2.1,0.9
		c0.8,0.4,1.3,0.8,1.5,1.4c0.1,0.3,0.2,0.7,0.2,1.2c0,0.4-0.1,0.8-0.2,1.2c-0.2,0.4-0.4,0.7-0.7,1c-0.3,0.3-0.7,0.5-1.2,0.7
		S1049.1,407.1,1048.5,407.1z"/>
	<path d="M1066.3,407.1c-0.8,0-1.6-0.1-2.3-0.4c-0.7-0.3-1.3-0.7-1.8-1.2c-0.5-0.5-0.9-1.1-1.1-1.8c-0.3-0.7-0.4-1.4-0.4-2.2
		s0.1-1.5,0.4-2.2c0.3-0.7,0.7-1.3,1.1-1.8c0.5-0.5,1.1-0.9,1.8-1.2s1.5-0.4,2.3-0.4c1.1,0,2,0.2,2.9,0.7s1.5,1.1,2,2
		c0.5,0.9,0.7,1.8,0.7,2.9c0,1.1-0.2,2.1-0.7,2.9c-0.5,0.9-1.2,1.5-2,2S1067.4,407.1,1066.3,407.1z M1066.3,405.4
		c0.7,0,1.3-0.2,1.9-0.5c0.6-0.3,1-0.8,1.4-1.4c0.3-0.6,0.5-1.3,0.5-2c0-0.8-0.2-1.4-0.5-2.1c-0.3-0.6-0.8-1.1-1.4-1.4
		s-1.2-0.5-1.9-0.5c-0.7,0-1.4,0.2-2,0.5c-0.6,0.4-1,0.8-1.4,1.4c-0.3,0.6-0.5,1.3-0.5,2c0,0.7,0.2,1.4,0.5,2
		c0.3,0.6,0.8,1.1,1.4,1.4C1064.9,405.2,1065.6,405.4,1066.3,405.4z"/>
	<path d="M1075.1,406.9v-9.4h-1.3V396h1.3v-2.2c0-1.2,0.3-2.1,0.8-2.6c0.5-0.6,1.3-0.9,2.3-0.9c0.9,0,1.8,0.2,2.6,0.7l-0.4,1.6
		c-0.7-0.4-1.4-0.6-1.9-0.6c-1,0-1.5,0.7-1.5,2v2h3.1v1.6h-3.1v9.4H1075.1z"/>
	<path d="M1082.7,406.9v-9.4h-1.3V396h1.3v-2.2c0-1.2,0.3-2.1,0.8-2.6s1.3-0.9,2.3-0.9c0.9,0,1.8,0.2,2.6,0.7l-0.4,1.6
		c-0.7-0.4-1.4-0.6-1.9-0.6c-1,0-1.5,0.7-1.5,2v2h3.1v1.6h-3.1v9.4H1082.7z"/>
	<path d="M1005.9,422.9c1.3,0,2.2,0.4,2.9,1.1c0.6,0.8,1,1.9,1,3.5v6.4h-1.8v-5.9c0-1.2-0.2-2.1-0.6-2.7c-0.4-0.6-1.1-0.8-1.9-0.8
		s-1.6,0.4-2.2,1.1c-0.6,0.7-0.9,1.7-0.9,2.9v5.5h-1.8v-6c0-0.8-0.1-1.5-0.3-2c-0.2-0.5-0.5-0.9-0.9-1.1s-0.9-0.4-1.4-0.4
		c-0.9,0-1.7,0.4-2.3,1.1c-0.6,0.7-0.9,1.7-0.9,2.9v5.5h-1.8v-11h1.8v1.9h0c0.4-0.6,1-1.1,1.6-1.5c0.6-0.3,1.3-0.5,2-0.5
		c1.7,0,2.9,0.7,3.5,2.1h0c0.4-0.7,1-1.2,1.7-1.6C1004.3,423.1,1005.1,422.9,1005.9,422.9z"/>
	<path d="M1020.2,423h1.9l-6.2,15.4h-1.9l2-4.9l-4.6-10.6h1.9l3.6,8.4h0.1L1020.2,423z"/>
	<path d="M1039.1,417.4h1.8V434h-1.8v-1.7h0c-0.3,0.4-0.6,0.7-1,1c-0.4,0.3-0.8,0.5-1.3,0.6c-0.5,0.2-1,0.2-1.5,0.2
		c-0.7,0-1.5-0.1-2.1-0.4s-1.2-0.6-1.7-1.1c-0.5-0.5-0.9-1.1-1.1-1.8c-0.3-0.7-0.4-1.5-0.4-2.3c0-0.8,0.1-1.6,0.4-2.3
		c0.3-0.7,0.6-1.3,1.1-1.8c0.5-0.5,1-0.9,1.7-1.2c0.7-0.3,1.4-0.4,2.1-0.4c0.5,0,1,0.1,1.4,0.2c0.5,0.1,0.9,0.3,1.3,0.6
		c0.4,0.3,0.7,0.6,1,1h0V417.4z M1035.6,432.5c0.5,0,0.9-0.1,1.4-0.3c0.4-0.2,0.8-0.4,1.2-0.8c0.3-0.3,0.6-0.7,0.8-1.2
		c0.2-0.5,0.3-1,0.3-1.6c0-0.6-0.1-1.1-0.3-1.6c-0.2-0.5-0.4-0.9-0.8-1.3c-0.3-0.4-0.7-0.6-1.2-0.9c-0.4-0.2-0.9-0.3-1.4-0.3
		c-1.1,0-2,0.4-2.7,1.1c-0.7,0.7-1.1,1.7-1.1,2.9c0,1.1,0.3,2.1,1,2.8C1033.6,432.1,1034.5,432.5,1035.6,432.5z"/>
	<path d="M1053,423h1.8v11h-1.8v-1.7h0c-0.4,0.6-1,1.1-1.7,1.4s-1.4,0.5-2.2,0.5c-0.7,0-1.5-0.1-2.1-0.4s-1.2-0.6-1.7-1.1
		c-0.5-0.5-0.9-1.1-1.1-1.8c-0.3-0.7-0.4-1.5-0.4-2.3c0-1.1,0.2-2,0.7-2.9c0.5-0.9,1.1-1.5,1.9-2c0.8-0.5,1.7-0.7,2.8-0.7
		c0.8,0,1.5,0.2,2.1,0.5c0.6,0.3,1.2,0.7,1.7,1.3h0V423z M1049.4,432.5c0.5,0,1-0.1,1.4-0.3s0.8-0.4,1.2-0.8
		c0.3-0.3,0.6-0.7,0.8-1.2c0.2-0.5,0.3-1,0.3-1.6c0-0.6-0.1-1.1-0.3-1.6c-0.2-0.5-0.4-0.9-0.8-1.3c-0.3-0.4-0.7-0.6-1.2-0.9
		c-0.5-0.2-0.9-0.3-1.5-0.3c-1.1,0-2,0.4-2.7,1.1c-0.7,0.7-1.1,1.7-1.1,2.9c0,1.1,0.3,2.1,1,2.8
		C1047.4,432.1,1048.3,432.5,1049.4,432.5z"/>
	<path d="M1061.3,434.1c-1.9,0-2.9-1.1-2.9-3.4v-6.1h-1.4V423h1.4v-3.8l1.8-0.2v4h3.6v1.6h-3.6v5.8c0,0.7,0.1,1.2,0.3,1.5
		c0.2,0.3,0.5,0.5,1,0.5c0.6,0,1.2-0.2,1.9-0.6l0.5,1.6c-0.2,0.1-0.5,0.2-0.7,0.3c-0.2,0.1-0.5,0.2-0.8,0.2
		C1062.1,434.1,1061.7,434.1,1061.3,434.1z"/>
	<path d="M1074.4,423h1.8v11h-1.8v-1.7h0c-0.4,0.6-1,1.1-1.7,1.4c-0.7,0.3-1.4,0.5-2.2,0.5c-0.7,0-1.5-0.1-2.1-0.4s-1.2-0.6-1.7-1.1
		c-0.5-0.5-0.9-1.1-1.1-1.8c-0.3-0.7-0.4-1.5-0.4-2.3c0-1.1,0.2-2,0.7-2.9c0.5-0.9,1.1-1.5,1.9-2s1.7-0.7,2.8-0.7
		c0.8,0,1.5,0.2,2.1,0.5s1.2,0.7,1.7,1.3h0V423z M1070.8,432.5c0.5,0,1-0.1,1.4-0.3s0.8-0.4,1.2-0.8c0.3-0.3,0.6-0.7,0.8-1.2
		c0.2-0.5,0.3-1,0.3-1.6c0-0.6-0.1-1.1-0.3-1.6s-0.4-0.9-0.8-1.3s-0.7-0.6-1.2-0.9c-0.5-0.2-0.9-0.3-1.5-0.3c-1.1,0-2,0.4-2.7,1.1
		c-0.7,0.7-1.1,1.7-1.1,2.9c0,1.1,0.3,2.1,1,2.8C1068.8,432.1,1069.7,432.5,1070.8,432.5z"/>
	<path d="M1080.6,434.1c-0.4,0-0.7-0.1-0.9-0.4c-0.3-0.2-0.4-0.6-0.4-0.9c0-0.4,0.1-0.7,0.4-0.9c0.3-0.2,0.6-0.4,0.9-0.4
		c0.4,0,0.7,0.1,0.9,0.4c0.3,0.2,0.4,0.6,0.4,0.9c0,0.2-0.1,0.4-0.2,0.6c-0.1,0.2-0.3,0.4-0.5,0.5S1080.9,434.1,1080.6,434.1z
		 M1080,429.3l-0.3-11.9h2.1l-0.3,11.9H1080z"/>
</g>
<g>
	<path d="M218.7,403.9c0.9,0.5,2.2,1,3.5,1c2,0,3.2-1.1,3.2-2.6c0-1.4-0.8-2.2-2.9-3c-2.5-0.9-4-2.2-4-4.3c0-2.4,2-4.1,4.9-4.1
		c1.6,0,2.7,0.4,3.4,0.7l-0.5,1.6c-0.5-0.3-1.5-0.7-2.9-0.7c-2.1,0-2.9,1.2-2.9,2.3c0,1.4,0.9,2.1,3,2.9c2.6,1,3.9,2.2,3.9,4.5
		c0,2.3-1.7,4.4-5.3,4.4c-1.5,0-3.1-0.4-3.9-1L218.7,403.9z"/>
	<path d="M232.2,392.3c0,0.7-0.5,1.2-1.3,1.2c-0.7,0-1.2-0.5-1.2-1.2c0-0.7,0.5-1.2,1.2-1.2C231.8,391.1,232.2,391.6,232.2,392.3z
		 M230,406.3v-10.9h2v10.9H230z"/>
	<path d="M244.7,395.4c0,0.8-0.1,1.7-0.1,3v6.3c0,2.5-0.5,4-1.6,5c-1.1,1-2.6,1.3-4,1.3c-1.3,0-2.8-0.3-3.6-0.9l0.5-1.5
		c0.7,0.5,1.8,0.9,3.2,0.9c2,0,3.5-1.1,3.5-3.8v-1.2h0c-0.6,1-1.8,1.8-3.5,1.8c-2.7,0-4.6-2.3-4.6-5.3c0-3.7,2.4-5.8,4.9-5.8
		c1.9,0,2.9,1,3.4,1.9h0l0.1-1.6H244.7z M242.7,399.7c0-0.3,0-0.6-0.1-0.9c-0.4-1.2-1.3-2.1-2.8-2.1c-1.9,0-3.2,1.6-3.2,4.1
		c0,2.1,1.1,3.9,3.2,3.9c1.2,0,2.3-0.8,2.8-2c0.1-0.3,0.2-0.7,0.2-1.1V399.7z"/>
	<path d="M247.8,398.3c0-1.1,0-2.1-0.1-3h1.8l0.1,1.8h0c0.5-1,1.8-2.1,3.6-2.1c1.5,0,3.9,0.9,3.9,4.6v6.5h-2V400
		c0-1.8-0.7-3.2-2.5-3.2c-1.3,0-2.3,0.9-2.7,2c-0.1,0.2-0.1,0.6-0.1,0.9v6.6h-2V398.3z"/>
	<path d="M206.9,425.4c0-1.1,0-2.1-0.1-3h1.7l0.1,1.8h0.1c0.6-1,1.6-2,3.4-2c1.5,0,2.6,0.9,3.1,2.2h0c0.3-0.6,0.8-1.1,1.2-1.4
		c0.7-0.5,1.4-0.8,2.4-0.8c1.4,0,3.6,0.9,3.6,4.7v6.4h-1.9v-6.2c0-2.1-0.8-3.4-2.4-3.4c-1.1,0-2,0.8-2.3,1.8c-0.1,0.3-0.2,0.6-0.2,1
		v6.7h-1.9v-6.5c0-1.7-0.8-3-2.3-3c-1.2,0-2.1,1-2.5,2c-0.1,0.3-0.2,0.6-0.2,1v6.6h-1.9V425.4z"/>
	<path d="M226.9,428.3c0,2.7,1.8,3.8,3.7,3.8c1.4,0,2.3-0.2,3-0.6l0.3,1.4c-0.7,0.3-1.9,0.7-3.6,0.7c-3.4,0-5.4-2.2-5.4-5.5
		s1.9-5.9,5.1-5.9c3.6,0,4.5,3.1,4.5,5.1c0,0.4,0,0.7-0.1,0.9H226.9z M232.7,426.8c0-1.3-0.5-3.2-2.8-3.2c-2,0-2.9,1.8-3,3.2H232.7z
		"/>
	<path d="M251,430.4c0,1.1,0,2.1,0.1,3h-1.8l-0.1-1.8h0c-0.5,0.9-1.7,2-3.6,2c-1.7,0-3.8-0.9-3.8-4.8v-6.4h2v6
		c0,2.1,0.6,3.5,2.4,3.5c1.3,0,2.3-0.9,2.6-1.8c0.1-0.3,0.2-0.7,0.2-1v-6.7h2V430.4z"/>
	<path d="M254.3,426c0-1.4,0-2.5-0.1-3.6h1.8l0.1,1.9h0c0.8-1.3,2.1-2.1,3.9-2.1c2.6,0,4.6,2.2,4.6,5.5c0,3.9-2.4,5.9-5,5.9
		c-1.4,0-2.7-0.6-3.4-1.7h0v5.9h-2V426z M256.2,428.9c0,0.3,0,0.6,0.1,0.8c0.4,1.4,1.6,2.3,3,2.3c2.1,0,3.3-1.7,3.3-4.2
		c0-2.2-1.2-4.1-3.2-4.1c-1.4,0-2.6,1-3,2.5c-0.1,0.2-0.1,0.5-0.1,0.8V428.9z"/>
	<path d="M266.7,432.2c0-0.8,0.6-1.4,1.3-1.4c0.8,0,1.3,0.6,1.3,1.4c0,0.8-0.5,1.4-1.3,1.4C267.2,433.6,266.7,433,266.7,432.2z
		 M267.3,429l-0.3-10.8h2.2l-0.3,10.8H267.3z"/>
</g>
</svg>
